<?xml version="1.0" encoding="utf-8"?>
<!-- Generator: Adobe Illustrator 24.0.2, SVG Export Plug-In . SVG Version: 6.00 Build 0)  -->
<svg version="1.1" id="Capa_1" xmlns="http://www.w3.org/2000/svg" xmlns:xlink="http://www.w3.org/1999/xlink" x="0px" y="0px"
	 viewBox="0 0 2000 2387.52" style="enable-background:new 0 0 2000 2387.52;" xml:space="preserve">
<style type="text/css">
	.st0{fill:#151B33;}
	.st1{fill:#9ECB2F;}
	.st2{fill:#9DCA2F;}
	.st3{fill:#719141;}
	.st4{fill:#0095EF;}
	.st5{fill:#C2C2DC;}
	.st6{fill:#0094ED;}
	.st7{fill:#0072D2;}
	.st8{fill:#FCFCFC;}
	.st9{fill:#C4C3DD;}
	.st10{fill:#141A32;}
	.st11{fill:none;stroke:#151B33;stroke-width:10;stroke-miterlimit:10;}
	.st12{font-family:'Impact';}
	.st13{font-size:312.5459px;}
</style>
<g>
	<g>
		<path class="st0" d="M1437.48,1714.76c-0.92,0.76-1.51,1.21-2.06,1.71c-29.19,27.22-61.56,50.09-95.92,70.25
			c-7.1,4.17-14.29,8.15-20.84,13.23c-4.74,3.68-10.21,6.22-15.91,8.21c-12.36,4.32-24.76,8.52-37.07,13
			c-12.83,4.66-25.51,9.75-38.36,14.37c-36.5,13.11-73.7,23.8-111.64,31.86c-21.06,4.47-42.29,8.05-63.68,10.65
			c-13.02,1.58-26.08,2.8-39.15,3.83c-6.39,0.5-12.71-0.1-18.96-1.57c-9.12-2.14-16.44-7.03-22.25-14.29
			c-2.82-3.52-5.18-7.35-7.06-11.45c-16.11-35.24-33.65-69.79-50.07-104.88c-8.96-19.16-17.52-38.49-25.24-58.19
			c-2.26-5.76-4.93-11.32-8.33-16.51c-6.84-10.45-16.41-16.62-28.71-18.84c-6.13-1.11-12.29-1.3-18.47-1.35
			c-43.85-0.32-87.71-0.5-131.56-0.99c-17.42-0.19-34.84-1.04-52.26-1.56c-19.86-0.59-39.72-0.99-59.57-1.79
			c-17.6-0.71-35.18-1.84-52.77-2.79c-7.48-0.4-14.97-0.76-22.45-1.25c-19.07-1.24-38.15-2.42-57.2-3.87
			c-14.76-1.12-29.49-2.59-44.23-3.92c-9.33-0.84-18.66-1.64-27.98-2.56c-8.95-0.88-17.88-1.89-26.82-2.87
			c-8.19-0.89-16.39-1.76-24.57-2.73c-10.6-1.25-21.2-2.5-31.79-3.88c-12.25-1.6-24.49-3.38-36.73-5.03
			c-10.02-1.35-20.06-2.57-30.08-3.98c-3.91-0.55-7.85-0.99-11.76-0.79c-8.14,0.42-16.03-1.16-23.97-2.46
			c-3.14-0.51-6.24-1.38-9.4-1.66c-6.99-0.62-12.71-4.24-18.61-7.46c-0.49-0.27-1.03-0.59-1.31-1.04
			c-2.13-3.51-4.37-6.98-5.47-11.01c-0.38-1.4,0.14-2.53,0.93-3.65c2.82-4.02,6.15-7.55,10.01-10.57c7.96-6.23,17.08-10,26.76-12.52
			c3.43-0.89,6.91-1.57,10.33-2.34c0.68-1.51-0.09-2.63-0.51-3.8c-9.34-25.87-18.71-51.73-28.02-77.61
			c-6.04-16.79-10.4-34.02-12.66-51.71c-5.05-39.53,0.13-77.68,16.17-114.24c4.9-11.16,9.36-22.45,12.15-34.35
			c3.75-16,4.97-32.14,3.28-48.53c-1.1-10.65-3.05-21.11-5.87-31.42c-5.14-18.81-9.11-37.86-10.92-57.3
			c-2.72-29.2-0.83-57.98,8.42-86.04c8.1-24.56,21.14-46.22,38.33-65.44c5-5.59,10.24-10.95,15.85-15.94
			c19.77-17.57,38.45-36.24,56.82-55.25c21.09-21.83,42.24-43.61,64.15-64.63c7.98-7.66,15.5-15.77,22.34-24.48
			c7.55-9.63,13.93-19.95,18.6-31.29c3.92-9.54,9.86-17.63,17.54-24.44c3.22-2.85,6.57-5.61,10.14-7.99
			c14.89-9.94,30.97-17.41,48.22-22.26c6.14-1.73,12.43-2.78,18.84-2.74c13.81,0.09,25.04,5.49,33.58,16.38
			c4.79,6.11,8.18,12.98,10.91,20.18c1.93,5.07,3.53,10.26,4.76,15.55c0.21,0.9,0.27,1.87,1.18,2.46c1.19,0.02,1.37-1.08,1.77-1.78
			c15.11-26.53,22.17-55.01,20.99-85.56c-0.69-17.89-3.92-35.33-8.79-52.49c-6.38-22.52-11.92-45.24-15.99-68.3
			c-2.9-16.42-5.01-32.94-6.27-49.58c-1.06-14.04-1.39-28.08-0.73-42.12c1.33-28.5,7.03-56.03,18.95-82.11
			c6.02-13.17,13.4-25.53,22.28-36.96c1.71-2.21,2.36-4.18,1.93-7.13c-2.34-16.16-3.07-32.42-2.21-48.76
			c0.97-18.54,3.26-36.93,5.89-55.29c0.98-6.86,1.82-13.75,2.34-20.65c1.26-16.37-1.76-32.08-8.13-47.15
			c-2.55-6.03-5.42-11.92-8.11-17.9c-2.69-5.98-5.31-11.98-6.55-18.47c-1.07-5.59-1.14-11.15,0.24-16.71
			c1.83-7.38,4.93-14.14,9.73-20.04c8.09-9.96,18.79-13.88,31.37-12.92c5.43,0.41,10.75,1.6,15.8,3.69c4.84,2,9.81,3.79,14.39,6.29
			c13.95,7.63,28.92,12.21,44.35,15.5c19.4,4.13,38.83,8.12,58.22,12.33c8.77,1.9,17.5,4.04,26.19,6.32
			c3.44,0.9,6.34,0.64,9.59-0.99c17.78-8.9,36.69-12.88,56.54-11.71c19.19,1.12,37.11,6.74,53.92,16
			c15.74,8.68,29.45,19.9,41.71,32.98c1.67,1.78,3.31,3.58,4.97,5.36c7.18,7.68,16.12,11.38,26.53,11.57
			c7.68,0.14,15.37-0.08,23.05,0.18c27.5,0.93,54.36,5.49,80.28,14.93c30.73,11.19,57.66,28.42,80.98,51.32
			c2.01,1.97,3.96,3.99,5.98,5.95c7.71,7.5,17.01,11.43,27.7,12.05c6.55,0.38,13.11,0.54,19.65,0.98
			c18.72,1.27,36.57,5.88,53.25,14.52c31.45,16.29,52.05,41.5,61.71,75.6c0.1,0.36,0.18,0.73,0.25,1.09c0.5,2.51,1.88,4.2,4.08,5.64
			c10.2,6.65,20.28,13.47,30.39,20.25c3.89,2.61,7.76,5.24,11.63,7.87c11.33,7.68,23,14.76,35.46,20.48
			c14.91,6.85,19.64,22.86,14.39,36.95c-1.85,4.98-4.84,9.27-8.52,13.1c-5.14,5.33-11.12,9.57-17.87,12.47
			c-9.49,4.07-16.55,10.77-22.36,19.04c-4.85,6.92-8.81,14.36-12.44,21.97c-3.06,6.42-6.02,12.89-8.92,19.38
			c-4.42,9.91-8.89,19.81-13.92,29.43c-1.09,2.08-1.55,4.05-1.21,6.43c1.01,7.05,1.52,14.15,1.77,21.27
			c0.81,22.94-2.64,45.16-11.15,66.54c-7.13,17.92-17.06,34.18-29.56,48.79c-40.11,46.89-84.47,89.24-135,124.88
			c-44.02,31.05-91.34,55.67-142.32,73.21c-18.11,6.23-35.47,14.1-51.6,24.52c-19.63,12.68-36.14,28.49-48.52,48.44
			c-9.07,14.61-15.34,30.37-19.32,47.06c-0.56,2.36-0.86,4.79-1.18,7.2c-0.15,1.11-0.15,2.25-0.05,3.36
			c0.51,5.96,3.54,8.59,9.61,8.57c2.67-0.01,5.26-0.56,7.73-1.35c7.48-2.39,14.87-5.07,22.32-7.58c1.68-0.57,2.29-1.73,2.54-3.32
			c0.8-5.18,1.61-10.36,2.44-15.54c1.04-6.47,2.17-12.93,3.12-19.41c0.99-6.71,4.53-11.77,9.75-15.83
			c3.89-3.02,8.33-5.01,12.96-6.57c9.83-3.31,20.01-4.72,30.29-5.66c19.11-1.74,38.2-0.92,57.29,0.24
			c7.48,0.45,14.93,1.26,22.39,2.01c2.52,0.25,4.73-0.19,6.96-1.45c40.96-23.04,79.37-49.65,114.13-81.38
			c22.76-20.77,43.55-43.34,62.36-67.74c12.36-16.02,24.6-32.13,37.6-47.65c12.89-15.39,26.47-30.12,41.66-43.3
			c19.99-17.35,42.06-31.21,67.09-40.14c5.64-2.01,11.32-3.96,17.18-5.18c4.97-1.04,9.04-3.49,12.47-7.13
			c1.8-1.91,3.56-3.85,5.35-5.77c17.69-19.09,38.75-32.85,63.79-40.31c11.54-3.44,23.35-5.43,35.38-5.8
			c7.89-0.24,15.7,0.54,23.36,2.65c18.01,4.96,29.97,16.34,35.95,33.95c4.04,11.89,4.93,24.17,3.92,36.61
			c-0.62,7.65-1.46,15.29-2.24,22.92c-0.54,5.26-0.19,10.49,0.62,15.68c0.29,1.84,0.79,3.68,1.46,5.41
			c2.47,6.36,7.19,9.87,13.96,10.56c6.42,0.66,12.72-0.15,18.93-1.76c5.43-1.41,10.81-3.05,16.25-4.39
			c11.19-2.77,22.47-3.79,33.98-2.13c13.75,1.99,25.85,7.51,36.21,16.66c13.65,12.06,23.4,26.7,27.99,44.49
			c3.79,14.7,2.92,29.32-1.03,43.86c-1.92,7.06-4.57,13.86-7.64,20.49c-4.88,10.52-9.77,21.05-14.7,31.55
			c-1.04,2.22-1.93,4.48-2.42,6.87c-0.71,3.5,0.5,6.26,3.56,8.14c2.26,1.39,4.78,2.1,7.37,2.59c9.76,1.85,19.37,4.25,28.65,7.85
			c8.07,3.13,15.68,7.09,22.56,12.4c13.4,10.35,21.04,24.07,23.97,40.61c3.24,18.3,0.5,35.78-7.12,52.61
			c-4.66,10.29-10.51,19.84-17.52,28.7c-0.93,1.18-1.9,2.32-2.82,3.51c-0.95,1.24-0.85,1.8,0.5,2.66c1.27,0.8,2.57,1.53,3.87,2.29
			c24.4,14.28,48.8,28.56,73.2,42.84c0.81,0.47,1.61,0.96,2.42,1.42c15.9,8.87,21.77,28.51,16.44,44.27
			c-1.2,3.54-2.7,6.98-4.17,10.42c-73.33,171.55-146.68,343.1-220.02,514.65c-1.55,3.62-3.19,7.18-5.6,10.34
			c-5.88,7.7-13.62,12.19-23.24,13.22c-6.54,0.7-12.65-0.97-18.32-4.21c-6.5-3.72-13.04-7.38-19.36-11.39
			c-2.91-1.84-5.75-2.33-9.03-1.92c-11.34,1.42-22.69,2.74-34.04,4.05c-8.19,0.95-16.38,1.89-24.58,2.67
			c-3.28,0.31-5.91,1.31-8.42,3.69c-9.32,8.85-23.97,12.01-37.4,4.15c-10.51-6.14-21.01-12.28-31.52-18.42
			C1440.99,1716.81,1439.38,1715.86,1437.48,1714.76z M1530.51,1369.6c0,0-0.08,0.09-0.08,0.09c0.45-0.8,0.98-1.57,1.35-2.4
			c16-37.09,31.98-74.19,47.93-111.31c0.4-0.94,1.3-1.91,0.37-3.62c-9.94-6.08-20.3-12.43-30.66-18.77
			c-5.68-3.6-11.36-7.2-17.05-10.79c-0.31-0.2-0.67-0.35-1.02-0.45c-0.83-0.23-1.55,0.03-1.7,0.9c-0.66,3.87-1.24,7.76-1.87,11.64
			c-3.2,19.58-6.41,39.17-9.59,58.75c-3.33,20.51-6.64,41.03-9.94,61.54c-0.86,5.36-1.67,10.73-2.56,16.08
			c-0.28,1.67,0.15,2.88,1.65,3.79c4.96,3.02,9.87,6.12,14.82,9.15c1.43,0.87,2.04,0.71,2.64-0.68c1.83-4.28,3.6-8.59,5.4-12.89
			C1530.44,1370.33,1530.55,1369.99,1530.51,1369.6z M1466.32,1139.21c4.66-1.35,9.32-2.69,13.96-4.08
			c0.25-0.08,0.37-0.58,0.57-0.92c-2.16-2.04-5.05-2.17-7.69-2.81c-4.72-1.15-9.5-2.06-14.26-3.08
			c-30.36-6.51-60.72-13.03-91.08-19.55c-28.72-6.16-57.44-12.3-86.15-18.47c-27.07-5.82-54.13-11.66-81.19-17.49
			c-28.89-6.21-57.78-12.49-86.69-18.6c-17.57-3.71-34.99-8.16-52.89-10.15c-10.63-1.19-21.26-2.12-31.95-1.46
			c-5.39,0.33-10.85,0.7-15.82,3.25c-5.53,2.35-6.19,4.7-2.45,9.01c0.98,1.12,2.08,2.17,3.27,3.07c1.78,1.36,3.62,2.68,5.55,3.82
			c10.38,6.14,21.42,10.77,33.18,13.41c12.96,2.91,26.02,5.39,39.04,8.08c28.41,5.86,56.82,11.74,85.24,17.58
			c26.4,5.42,52.82,10.77,79.22,16.19c30.25,6.21,60.49,12.46,90.74,18.7c12.65,2.61,25.31,5.16,37.94,7.85
			c6.99,1.49,12.81,5.11,17.62,10.38c0.63,0.69,1.24,1.41,1.8,2.16c0.79,1.06,1.84,1.21,2.99,0.91c1.45-0.38,2.88-0.82,4.32-1.24
			c12.56-3.73,25.12-7.45,37.66-11.22C1454.95,1142.81,1460.63,1140.98,1466.32,1139.21z M1409.03,948.11
			c-0.55-0.06-1.11-0.19-1.66-0.17c-7.41,0.28-8.22,4.2-5.84,9.7c1.65,3.82,4,7.21,6.7,10.34c8.75,10.14,18.65,18.95,30.25,25.74
			c79.03,46.26,158.06,92.52,237.1,138.78c15.68,9.18,31.29,18.46,47.04,27.51c8,4.6,13.54,11.09,16.75,19.66
			c0.13,0.35,0.23,0.71,0.33,1.08c0.37,1.46,1.26,2.23,2.81,2.17c0.94-0.03,1.87,0.01,2.81,0.01c14.62,0,29.24,0.01,43.86-0.01
			c1.49,0,2.98-0.18,4.47-0.27c8.42,0.72,20.77,0.48,24.31-0.47c-0.03-1.23-0.93-1.97-1.63-2.81c-2.08-2.5-4.87-4.04-7.61-5.68
			c-111.96-67-223.92-134-335.85-201.04c-10.46-6.27-21.35-11.65-32.55-16.42c-6.2-2.64-12.52-4.97-19.1-6.52
			C1417.22,948.76,1413.23,947.58,1409.03,948.11z M1629.38,1722.58c5.52-2.08,8.45-6.52,10.63-11.65
			c5.13-12.05,10.27-24.11,15.42-36.16c13.62-31.84,27.27-63.66,40.87-95.5c14.86-34.77,29.68-69.55,44.54-104.32
			c15.97-37.35,31.98-74.67,47.95-112.02c18.25-42.68,36.46-85.38,54.69-128.07c6.69-15.66,13.3-31.37,20.1-46.98
			c4.36-10.01,0.77-23.7-10-29.6c-13.95-7.65-27.55-15.94-41.28-23.98c-49.12-28.76-98.23-57.54-147.34-86.31
			c-39.58-23.18-79.17-46.37-118.76-69.54c-13.25-7.75-26.41-15.68-39.82-23.14c-17.84-9.93-36.41-18.42-55.33-26.09
			c-16.13-6.54-32.48-12.51-49.4-16.7c-9.28-2.29-18.63-4.16-28.27-3.92c-3.04,0.08-5.99,0.57-8.8,1.58
			c-3.48,1.24-6.39,3.22-6.89,7.35c-0.74,2.4-0.45,4.76,0.17,7.15c2.77,10.77,8.51,19.85,15.96,27.9c3.67,3.97,7.59,7.71,12.65,9.96
			c0.08,0.14,0.14,0.31,0.25,0.42c0.05,0.05,0.31-0.01,0.31-0.03c0.01-0.4-0.21-0.5-0.62-0.32c0.67-2.27-0.16-4.42-0.55-6.61
			c-1.5-8.5,2.69-16.76,10.43-20.45c2.9-1.38,5.94-2.13,9.18-2.37c10.13-0.75,19.77,1.58,29.15,4.89
			c15.22,5.37,29.8,12.2,43.67,20.48c28.15,16.79,56.25,33.66,84.37,50.49c30.85,18.47,61.71,36.93,92.56,55.4
			c30.05,17.99,60.1,35.97,90.15,53.96c24.58,14.72,49.17,29.44,73.75,44.16c5.78,3.46,10.17,8.21,13.13,14.26
			c5.42,11.09,5.66,22.32,0.86,33.66c-3.43,8.1-6.87,16.2-10.3,24.3c-16.49,38.96-32.98,77.93-49.47,116.89
			c-8.1,19.14-16.2,38.27-24.3,57.41c-7.37,17.41-14.73,34.83-22.11,52.24c-8.84,20.86-17.7,41.7-26.53,62.56
			c-9.71,22.93-19.39,45.87-29.08,68.8c-8.75,20.69-17.48,41.39-26.24,62.07c-6.13,14.48-12.29,28.95-18.46,43.42
			c-3.35,7.86-8.6,13.97-16.36,17.8c-0.89,0.44-2.18,0.52-2.55,2.26c2.5,1.39,5.05,2.94,7.72,4.24
			C1620.02,1724.73,1624.71,1725.13,1629.38,1722.58z M1421.87,1517.6c2.54,5.42,5.08,10.84,7.66,16.24
			c0.12,0.24,0.59,0.37,0.92,0.45c0.48,0.11,0.65-0.16,0.72-0.63c0.43-2.96,0.9-5.92,1.37-8.88c2.48-15.72,4.98-31.43,7.45-47.15
			c2.41-15.35,4.8-30.7,7.21-46.05c2.44-15.53,4.91-31.06,7.35-46.59c2.42-15.35,4.83-30.7,7.24-46.04
			c2.41-15.35,4.8-30.7,7.21-46.05c2.47-15.72,4.97-31.43,7.44-47.15c2.42-15.35,4.82-30.7,7.25-46.04
			c2.37-14.98,4.78-29.94,7.13-44.92c0.34-2.19,0.61-4.43-0.27-6.77c-4.53,0.71-8.75,2.18-12.98,3.61
			c-1.96,0.55-3.93,1.07-5.87,1.68c-1.23,0.39-1.63,1.21-1.41,2.59c1.1,6.85,1.79,13.76,1.36,20.7c-0.66,10.84-1.67,21.67-3.8,32.33
			c-1.8,8.99-4.08,17.87-6.02,26.84c-2.72,12.62-5.31,25.26-7.97,37.9c-0.11,0.53,0.13,1.36-1.1,1.48c0.13-2.15,0.18-4.2,0.4-6.24
			c1.3-12.1,2.91-24.17,3.91-36.29c1.34-16.24,3.67-32.37,5.31-48.57c0.81-8.01,1.7-16.02,1.74-24.09c0.01-1.27,0.39-2.61-0.83-4.11
			c-5.95,1.56-12,3.44-18.04,5.32c-1.4,0.44-1.5,1.54-1.19,2.71c1.21,4.6,1.17,9.3,0.94,13.97c-0.35,7.1-0.91,14.2-1.6,21.28
			c-1.27,13.04-2.6,26.08-4.1,39.1c-1.16,10.04-2.49,20.06-3.98,30.06c-1.63,10.92-3.52,21.8-5.32,32.69
			c-1.07,6.46-2.18,12.92-3.3,19.37c-0.12,0.69-0.31,1.54-1.23,1.61c-1.21,0.1-0.98-0.97-0.95-1.56c0.2-3.55,0.44-7.1,0.78-10.64
			c0.96-10.06,2.2-20.1,2.88-30.19c0.64-9.52,1.69-19.02,2.65-28.52c0.9-8.94,1.94-17.87,2.9-26.8c0.97-8.93,1.97-17.86,2.86-26.81
			c0.84-8.38,1.61-16.78,2.27-25.18c0.17-2.22-0.09-4.49-0.31-6.71c-0.17-1.71-0.91-2.15-2.72-1.62c-7.54,2.2-15.07,4.45-22.6,6.72
			c-2.02,0.61-2.18,0.82-2.09,3.29c0.14,3.76-0.19,7.46-0.86,11.17c-1.26,7-2.3,14.04-3.42,21.06c-3.17,19.96-6.3,39.93-9.5,59.89
			c-3.56,22.18-7.21,44.34-10.76,66.51c-3.91,24.39-7.77,48.8-11.64,73.2c-0.64,4.05-2.41,8.19-1.48,12.13
			c0.93,3.91,3.38,7.47,5.18,11.17c0.39,0.81,0.71,1.74,2.06,1.63c1.17-6.98,2.32-13.99,3.53-21c1.11-6.45,2.23-12.91,3.47-19.34
			c0.3-1.54,0.38-3.31,1.8-4.37c0.92,0.55,0.85,1.31,0.81,2.02c-0.21,3.18-0.3,6.37-0.71,9.53c-1.64,12.62-3.33,25.24-5.13,37.84
			c-0.44,3.09-0.02,5.79,1.37,8.63c8.84,17.97,17.51,36.03,26.27,54.03C1415.31,1504.58,1418.61,1511.08,1421.87,1517.6z
			 M1718.13,1388.53c-2.1-0.23-2.73-0.75-2.31-1.98c0.3-0.88,0.69-1.74,1.1-2.57c1.72-3.53,3.46-7.06,5.19-10.59
			c8.23-16.81,16.47-33.61,23.16-51.12c4.27-11.19,8.45-22.41,13.02-33.48c8.71-21.11,17.16-42.31,24.99-63.75
			c3.08-8.44,6.22-16.85,10.39-24.84c0.33-0.64,0.79-1.3,0.31-2.41c-0.9-0.05-1.96-0.16-3.03-0.17c-4.87-0.02-9.74-0.05-14.61,0.01
			c-2.23,0.03-4.87-0.86-6.58,0.46c-1.89,1.47-1.61,4.38-2.18,6.69c-0.18,0.73-0.41,1.44-0.61,2.16
			c-3.91,13.93-9.23,27.3-16.46,39.85c-6.26,10.88-11.95,22.05-17.29,33.4c-1.03,2.2-2.17,4.35-3.31,6.5
			c-0.42,0.8-0.94,2.05-1.91,1.71c-1.11-0.39-0.44-1.56-0.13-2.36c1.16-2.96,2.33-5.92,3.56-8.85c3.4-8.11,6.96-16.16,9.79-24.49
			c3.49-10.28,7.37-20.41,11.76-30.35c3.03-6.85,5.46-13.93,7.44-21.16c0.29-1.06,0.77-2.12-0.1-3.55c-5.58,0-11.37-0.01-17.16,0.01
			c-1.36,0-1.99,0.91-2.18,2.12c-0.6,3.93-2.12,7.55-3.66,11.17c-36.63,85.89-73.27,171.78-109.89,257.67
			c-34.06,79.87-68.11,159.74-102.14,239.62c-0.57,1.33-1.58,2.57-1.23,4.52c4.44,0.06,8.82-0.77,13.24-1.23
			c1.58-0.16,2.21-0.99,2.72-2.32c5.48-14.34,11.91-28.28,18.03-42.34c3.36-7.73,7.03-15.3,10.9-22.79
			c4.89-9.48,9.74-18.98,14.61-28.47c0.45,0.36,0.91,0.73,1.36,1.09c-4.2,11.21-8.36,22.44-12.61,33.63
			c-6.84,18.04-15.14,35.44-23.15,52.97c-0.99,2.16-2.29,4.22-2.72,7.15c6.06-0.54,11.79-1.27,17.52-1.99
			c1.81-0.23,2.39-1.49,3.02-2.9c8.04-18.13,16.13-36.24,24.17-54.37c16.24-36.61,31.3-73.71,47.02-110.54
			c2.13-4.99,4.45-9.9,6.67-14.85c0.46-1.02,0.81-2.12,2.31-2.67c-0.57,2.13-1.04,4.11-1.63,6.06
			c-4.56,15.25-10.07,30.17-15.73,45.03c-16.64,43.75-35.26,86.65-55.31,128.94c-0.53,1.12-1.6,2.16-0.8,4.14
			c3.45-0.83,7.23,0.29,10.79-1.36c4.1-0.4,8.19-0.87,12.29-1.2c7.2-0.57,12.16-4.41,15.51-10.55c0.98-1.8,1.69-3.75,2.49-5.64
			c61.6-145.57,123.2-291.14,184.81-436.7c6.49-15.33,13.03-30.64,19.48-45.99c1.05-2.5,2.42-4.98,2.12-8.2
			c-6.54,0-12.9-0.03-19.25,0.02c-1.85,0.01-2.27,0.4-2.53,2.27c-1.36,9.7-4.36,18.94-7.71,28.09c-1.29,3.51-2.56,7.03-3.85,10.54
			c-10.79,29.34-22.28,58.35-36.96,86.04C1739.66,1345.75,1729.53,1367.47,1718.13,1388.53z M962.47,1160.75
			c1.11-0.15,2.24-0.22,3.33-0.47c8.95-1.98,17.87-4.1,26.84-5.96c17.25-3.57,34.68-6.12,52.25-7.05
			c20.02-1.06,40.04-1.08,60.01,1.68c12.82,1.77,25.45,4.21,37.88,7.77c32.58,9.32,61.43,25.52,87.07,47.52
			c15.98,13.72,30.28,29.03,42.87,45.92c6.72,9.02,13.48,17.98,21.49,25.93c1.85,1.84,3.61,3.85,5.04,6.02
			c10.94,16.55,22.45,32.76,31.62,50.43c2.93,5.65,6.26,11.09,9.08,16.79c6.65,13.42,13.09,26.95,19.65,40.41
			c0.45,0.92,0.55,2.19,2.11,2.56c0.28-0.85,0.69-1.7,0.84-2.59c1.97-12.19,3.91-24.39,5.84-36.58c2.4-15.15,4.76-30.31,7.19-45.46
			c2.43-15.15,4.97-30.28,7.4-45.43c2.43-15.15,4.76-30.31,7.19-45.46c1.99-12.38,4.13-24.73,6.07-37.11
			c1.45-9.24-4.03-18.23-12.85-21.29c-1.76-0.61-3.62-0.94-5.45-1.32c-17.4-3.6-34.81-7.18-52.21-10.76
			c-20.7-4.26-41.41-8.52-62.11-12.77c-21.25-4.36-42.51-8.71-63.77-13.07c-20.71-4.25-41.41-8.52-62.11-12.77
			c-21.25-4.36-42.51-8.7-63.77-13.06c-19.24-3.94-38.49-7.82-57.72-11.83c-13.17-2.75-26.53-4.77-39-10.22
			c-8.39-4.6-16.36-9.79-23.14-16.62c-0.39-0.39-0.97-0.41-1.64,0.07c-0.92,5.95-1.82,12.05-2.8,18.13
			c-2.1,13.1-4.25,26.19-6.37,39.29c-1.71,10.51-3.41,21.03-5.12,31.54c-1.2,7.38-2.44,14.75-3.6,22.13
			c-0.32,2.03,0.52,2.79,2.56,2.39c1.28-0.25,2.54-0.62,3.77-1.05C948.1,1165.91,955.28,1163.32,962.47,1160.75z M1524.78,1403.37
			c-10.49-7.33-18.56-12.05-22.08-12.87c-0.46,2.38-0.98,4.75-1.36,7.14c-2.42,15.31-4.77,30.64-7.23,45.95
			c-1.63,10.14-3.48,20.25-5.11,30.39c-2.46,15.31-4.76,30.64-7.23,45.95c-2.43,15.12-5,30.22-7.48,45.34
			c-2.21,13.46-4.33,26.92-6.59,40.37c-0.61,3.63-0.26,6.88,1.45,10.27c6.04,12.04,11.81,24.21,17.68,36.33
			c0.49,1.01,1.03,2,1.48,3.02c0.82,1.9,0.62,2.37-1.38,3.53c-0.16,0.09-0.33,0.18-0.5,0.26c-7.72,3.68-13.2,9.67-17.49,16.91
			c-5.44,9.19-11.14,18.19-18.68,25.87c-1.46,1.48-1.28,2.3,0.67,3.49c3.35,2.05,6.77,3.99,10.16,5.98
			c6.77,3.98,13.52,8.01,20.33,11.94c4.21,2.43,8.62,3.41,13.45,1.73c5.05-1.76,8.79-4.95,11.08-9.71
			c1.86-3.86,3.41-7.87,5.09-11.82c0.35-0.66,0.74-1.31,1.03-2c14.98-35.12,29.95-70.24,44.92-105.37
			c27.44-64.4,54.88-128.8,82.33-193.19c25.69-60.26,51.41-120.51,77.1-180.77c2.94-6.89,5.94-13.75,8.74-20.69
			c4.58-11.35-0.57-24.01-9.84-28.65c-0.84-0.42-1.62-0.94-2.43-1.41c-23.27-13.62-46.54-27.23-69.81-40.85
			c-42.82-25.07-85.63-50.14-128.45-75.21c-41.04-24.03-82.08-48.05-123.1-72.11c-6.61-3.88-13.13-7.9-19.69-11.86
			c-0.61-0.69-1.16-1.46-1.85-2.06c-8.53-7.49-15.75-16.01-20.89-26.2c-0.32-0.64-0.9-1.14-1.33-1.68
			c-1.27,0.64-1.61,1.73-2.05,2.75c-1.4,3.27-2.8,6.54-4.19,9.81c-9.25,21.7-18.5,43.39-27.75,65.09
			c-3.6,8.44-7.21,16.87-10.79,25.31c-0.63,1.5-0.31,2.12,1.16,2.42c4.76,0.97,9.54,1.87,14.3,2.86
			c17.03,3.53,34.04,7.1,51.07,10.61c19.59,4.04,39.2,8.02,58.79,12.02c15.57,3.18,31.14,6.34,46.71,9.54
			c14.47,2.97,28.96,5.82,43.39,9c17.26,3.81,29.22,19.98,26.25,39.37c-1.24,8.13-2.72,16.23-4.05,24.35
			c-2.56,15.68-5.06,31.38-7.67,47.06c-0.42,2.51-0.02,4.28,2.35,5.64c5.18,2.98,10.25,6.16,15.37,9.26
			c1.24,0.84,2.46,1.71,3.73,2.5c11.77,7.32,23.55,14.62,35.33,21.93c1.59,0.99,3.23,1.92,4.71,3.06c3.11,2.41,3.88,5.28,2.57,8.95
			c-0.25,0.7-0.56,1.39-0.86,2.08c-20.27,47.12-40.55,94.25-60.82,141.37c-0.44,1.03-0.88,2.07-1.41,3.06
			c-1.23,2.31-3.15,3.67-5.79,3.88C1527.03,1403.42,1525.9,1403.36,1524.78,1403.37z M850.06,1031.17c2.8-3.76,4.81-7.99,7.09-12.05
			c6.42-11.42,12.83-22.85,19.21-34.29c4.74-8.5,9.45-17.02,14.12-25.56c0.69-1.26,1.81-2.45,1.36-4.07
			c-11.43-2.04-22.84-3.99-34.22-6.12c-17.48-3.26-34.71-7.51-51.45-13.6c-15.54-5.66-30.26-12.93-44.21-21.84
			c-20.78-13.27-39.18-29.45-56.98-46.34c-12.5-11.86-24.54-24.19-36.21-36.88c-7.35-7.99-14.91-15.79-22.28-23.77
			c-5.46-5.91-10.73-12-16.13-17.96c-3.02-3.33-6.11-6.59-9.2-9.85c-0.62-0.65-1.42-0.49-1.88,0.23c-0.5,0.77-0.85,1.65-1.2,2.51
			c-4.44,10.72-8.77,21.48-13.32,32.15c-5.56,13.02-12.61,25.06-23.37,34.63c-4.48,3.98-8.57,8.38-12.15,13.21
			c-4.24,5.72-8,11.71-10.96,18.24c-4.8,10.6-6.32,21.84-7.19,33.24c-0.1,1.29,0.08,2.61,0.19,3.92c0.18,2.05,0.56,4.08,0.59,6.13
			c0.05,4.52,0.93,8.93,1.77,13.33c2.51,13.07,6.48,25.74,10.89,38.27c0.85,2.41,1.33,5.06,3.22,7.02
			c-0.27,3.8,0.79,7.45,1.45,11.11c6.33,35.1,16.24,69.18,29.24,102.38c15.33,39.15,34.44,76.43,55.65,112.68
			c16.55,28.3,34.27,55.87,52.41,83.16c2.38,3.59,4.77,7.17,7.21,10.72c0.92,1.35,1.56,1.4,2.69,0.37c0.83-0.76,1.62-1.56,2.41-2.36
			c10.94-11.06,22.29-21.67,34.17-31.73c17.19-14.55,35.32-27.78,54.5-39.59c10.85-6.68,22.02-12.79,33.45-18.41
			c4.56-2.24,8.89-4.84,12.74-8.16c5.76-4.96,8.58-11.13,7.95-18.87c-0.4-4.95-1.99-9.5-3.89-13.99c-1.46-3.44-3.08-6.83-4.53-10.27
			c-6.37-15.12-10.27-30.9-11.89-47.18c-0.89-8.92-1.08-17.91-0.61-26.92c0.59-11.25,2.08-22.35,4.47-33.34
			C846.62,1044.57,848.41,1037.89,850.06,1031.17z M1048.97,1718.08c0.24-10.1-0.2-20.2,0.96-30.3c1-8.78,2.43-17.43,5.08-25.84
			c6.02-19.06,17.12-34.37,33.93-45.43c9.79-6.44,20.35-11.1,31.56-14.39c18.8-5.52,37.59-5.7,56.46-0.18
			c12.53,3.67,24.07,9.35,34.94,16.43c22.36,14.57,41.25,32.87,57.66,53.83c12.5,15.96,23.45,32.95,33.65,50.44
			c2.83,4.85,5.45,9.84,8.5,14.55c4.06,6.28,8.98,8.07,16.66,2.63c0.76-0.54,1.46-1.18,2.12-1.84c2.63-2.62,3.62-5.64,2.04-9.19
			c-0.61-1.36-1.2-2.75-1.97-4.02c-8.74-14.44-16.38-29.45-23.29-44.84c-6.77-15.06-12.42-30.53-15.94-46.68
			c-3.15-14.45-5.31-29.05-6.5-43.83c-1.19-14.87-0.58-29.57,2.74-44.09c4.57-19.99,14.7-36.69,30.42-49.96
			c6.9-5.83,14.37-10.79,22.36-14.98c2.66-1.39,5.23-2.88,7.42-5.01c2.49-2.41,3.37-5.26,3-8.66c-0.32-2.88-1.6-5.37-2.9-7.85
			c-14.17-27.04-28.32-54.08-43.63-80.5c-21.82-37.65-45.54-74.01-73-107.84c-10.41-12.82-21.32-25.13-34.09-35.71
			c-21.26-17.62-45.17-29.86-72.09-36.29c-15.6-3.73-31.46-4.69-47.36-5.24c-15.73-0.54-31.45,0.31-47.14,1.73
			c-13.63,1.23-27.13,3.18-40.55,5.75c-26.19,5.03-51.58,12.74-76.25,22.82c-37.66,15.39-72.48,35.79-105.26,59.78
			c-19.07,13.95-37.11,29.16-54.74,44.87c-1.67,1.49-3.27,3.11-4.63,4.89c-3.43,4.49-3.73,9.28-0.74,14.12
			c1.08,1.74,2.36,3.38,3.65,4.97c3.9,4.8,7.88,9.53,11.78,14.32c15.85,19.47,31.73,38.9,49.06,57.11
			c10.09,10.6,20.78,20.54,31.94,30c0.72,0.61,1.45,1.21,2.61,0.6c0.11-0.84,0.23-1.76,0.37-2.68c1.21-7.76,2.36-15.53,5.1-22.97
			c3.98-10.81,11.32-17.4,22.94-18.85c1.68,0.05,3.36,0.13,5.04,0.13c1.38,0,2.52,0.47,3.58,1.34c6.71,5.5,10.63,12.62,11.51,21.15
			c0.82,8.02,0.69,16.14-0.23,24.13c-1.11,9.69-0.85,19.41-1.58,29.11c-0.54,7.24-0.28,14.55,0.51,21.85
			c0.73,6.67,0.49,13.42,1.12,20.15c0.93,9.86,2.11,19.68,3.43,29.49c1.57,11.68,3.82,23.24,6.4,34.71
			c4.64,20.63,10.56,40.89,17.39,60.91c9.44,27.67,20.77,54.55,33.24,80.96c11.03,23.37,22.87,46.34,35.13,69.09
			c3.55,6.59,7.07,13.21,10.88,19.65c4.37,7.4,10.55,12.29,19.3,14.08c6.68,1.36,13.06,0.43,19.44-0.93
			c9.89-2.11,19.37-5.69,28.97-8.81c2.85-0.93,5.47-2.4,7.54-4.72c1.31-1.47,1.99-3.07,2.04-5.06c0.08-3.72-1.31-6.96-3.15-10.03
			c-2.02-3.37-4.19-6.65-6.27-9.99c-1.7-2.72-2.98-5.58-3.56-8.78c-0.73-4.04-1.53-8.08-2.53-12.06
			c-2.91-11.6-5.92-23.18-8.93-34.76C1053.13,1733.61,1051.03,1725.85,1048.97,1718.08z M609.8,434.63
			c-1.64,1.97-2.43,4.46-3.41,6.81c-8.21,19.58-11.99,40.11-12.7,61.24c-0.44,13.12,0.64,26.19,1.83,39.25
			c1.12,12.31,2.67,24.55,4.6,36.76c3.81,24.08,9.45,47.72,16.85,70.94c14.56,45.68,35.77,88.05,63.38,127.24
			c17.34,24.62,36.98,47.16,59.95,66.72c27.44,23.37,58.22,40.76,92.64,51.61c17.91,5.64,36.19,9.48,54.89,11.36
			c11.74,1.18,23.43,2.34,35.28,1.14c7.83-0.79,15.66-1.52,23.43-2.71c20.38-3.12,40.42-7.77,60.09-14
			c37.94-12.02,73.23-29.53,106.44-51.34c28.59-18.77,55.01-40.28,80.05-63.52c16.63-15.43,32.55-31.58,48.08-48.11
			c4.74-5.05,9.35-10.25,13.71-15.63c12.03-14.88,21.03-31.4,26.29-49.86c0.6-2.11,1.04-4.26,1.52-6.26
			c-1.38-0.79-2.09-0.01-2.87,0.38c-3.01,1.51-5.96,3.16-9.03,4.56c-20.76,9.48-42.76,13.47-65.39,14.48
			c-10.88,0.49-21.7-0.35-32.5-1.82c-15.51-2.12-30.43-6.25-44.67-12.71c-18.54-8.41-34.5-20.26-47.58-35.93
			c-14.44-17.3-23.65-37.18-29.4-58.82c-3.57-13.44-5.31-27.18-6.52-40.98c-1.26-14.36-2.36-28.74-3.45-43.11
			c-0.68-8.97-1.73-17.9-3.64-26.68c-1.64-7.53-3.88-14.9-8.72-21.12c-5.74-7.37-13.34-11.27-22.71-11.61
			c-6.32-0.23-12.23,1.55-17.98,3.9c-8.02,3.27-15.36,7.78-22.55,12.55c-10,6.64-19.54,13.91-29.1,21.14
			c-17.48,13.22-34.9,26.54-53.14,38.73c-12.82,8.57-26.29,15.85-40.58,21.65c-18.02,7.32-36.76,11.65-56.11,13.04
			c-16.52,1.18-32.97,0.07-49.18-3.43c-15.63-3.37-30.69-8.38-44.63-16.41c-8.29-4.77-16.42-9.77-24.21-15.32
			c-23.34-16.66-42.83-36.86-56.97-61.98C611.34,435.97,611.01,435.06,609.8,434.63z M859.72,1610.06c0.84-1.78,0.27-3.43,0.06-5.04
			c-1.01-7.61-2.05-15.21-3.15-22.81c-1.75-12.04-3.61-24.06-6.61-35.88c-5.78-22.77-16.8-42.36-34.76-57.77
			c-21.24-18.23-40.52-38.39-58.75-59.59c-19.08-22.17-36.95-45.29-54.5-68.67c-34.34-45.73-66.28-93.05-94.37-142.9
			c-27.55-48.89-50.96-99.63-68.77-152.89c-18.73-56.02-30.54-113.44-34.99-172.35c-1.21-16.07-1.7-32.17-1.75-48.29
			c-0.03-10.13,0.02-20.23,2.05-30.21c0.49-2.4,0.53-4.85,0.18-7.27c-0.8-5.59-3.84-9.16-9.4-10.6c-2.61-0.68-5.14-0.72-7.76-0.11
			c-4.29,1-8.07,3.03-11.55,5.6c-4.67,3.45-9.2,7.09-13.8,10.63c-5.3,4.07-9.35,9.13-12.34,15.09c-2.45,4.89-4.15,10.03-5.48,15.3
			c-5.34,21.15-8.12,42.66-8.69,64.44c-0.68,26.16,2.34,51.96,7.79,77.51c11.89,55.78,28.38,110.14,49.78,163.02
			c27.57,68.12,62.43,132.35,103.48,193.25c39.99,59.34,85.1,114.57,134.06,166.7c15.65,16.67,31.48,33.16,48.59,48.37
			c22.93,20.39,47.88,37.85,75.12,52C855.93,1608.53,857.62,1609.77,859.72,1610.06z M777.62,508.31c9.24,0.09,17.6-0.77,25.96-1.96
			c17.95-2.55,35.03-7.86,51.37-15.65c29.74-14.16,54.06-34.84,73.23-61.52c13.2-18.37,23.75-38.16,30.11-59.98
			c4.12-14.12,6.39-28.46,4.32-43.25c-1.39-9.95-4.05-19.4-9.7-27.85c-0.72-1.08-1.33-2.25-1.91-3.42
			c-2.44-4.87-5.3-9.47-8.57-13.83c-8.16-10.85-17.87-20.18-28.24-28.86c-14.26-11.94-29.56-22.4-45.48-31.96
			c-14.94-8.98-30.37-17.05-46.28-24.2c-2.74-1.23-5.2-1.37-8.09-0.42c-7.91,2.61-15.21,6.34-21.9,11.24
			c-13.24,9.69-23.35,22.11-31.24,36.39c-13.17,23.82-27.96,46.55-44.61,68.09c-20.81,26.92-44.06,51.52-69.59,74.01
			c-7.05,6.21-13.41,13.07-19.3,20.39c-1.17,1.46-1.45,2.77-0.55,4.58c2.93,5.87,6.04,11.64,9.55,17.18
			c12.79,20.23,29.22,37,48.73,50.76C713.27,497.7,744.07,508.46,777.62,508.31z M1623.22,1006.44c3.04-5.77,5.96-11.2,8.77-16.68
			c0.68-1.32,1.15-2.78,1.52-4.22c1.09-4.34,0.2-8.19-3.19-11.26c-1.24-1.13-2.57-2.2-3.98-3.09c-2.21-1.4-4.49-2.71-6.81-3.93
			c-9.81-5.17-19.06-11.21-27.54-18.35c-24.86-20.93-38.95-47.47-41.5-79.99c-0.25-3.17-0.6-6.35-1.26-9.45
			c-1.5-6.99-5.49-10.24-12.62-10.4c-2.61-0.06-5.26,0.06-7.84,0.42c-12.14,1.68-24.24,1.77-36.35-0.34
			c-18.26-3.19-34.02-11.23-47.24-24.2c-9.75-9.57-17-20.87-22.72-33.21c-1.5-3.23-3.06-6.42-4.69-9.58
			c-1.21-2.34-2.84-4.4-4.73-6.25c-3.6-3.52-7.75-4.23-12.41-2.56c-2.84,1.02-5.45,2.5-7.95,4.16
			c-14.08,9.35-27.36,19.7-39.56,31.41c-12.48,11.98-23.49,25.18-33.3,39.44c-17.34,25.21-36.58,48.89-57.59,71.13
			c-28.65,30.33-60.14,57.41-94.22,81.49c-5.81,4.11-11.71,8.09-17.55,12.17c-0.4,0.28-0.75,0.82-0.84,1.3
			c-0.16,0.79,0.63,0.81,1.12,0.91c12.82,2.66,25.65,5.31,38.48,7.94c22.91,4.7,45.82,9.39,68.74,14.08
			c8.98,1.84,17.96,3.69,26.95,5.5c2.21,0.45,2.61,0.25,3.47-1.7c1.28-2.91,2.46-5.87,3.71-8.8
			c17.13-40.12,34.36-80.19,51.33-120.38c4.23-10.01,11.62-15.09,21.95-17.01c8.65-1.61,17.2-0.72,25.71,0.58
			c10.93,1.67,21.6,4.56,32.12,7.94c21.43,6.87,42.18,15.47,62.48,25.13c10.31,4.91,20.72,9.71,30.6,15.4
			c33.42,19.27,66.63,38.93,99.92,58.43C1618.45,1003.77,1620.73,1005.03,1623.22,1006.44z M767.53,1605.43
			c-0.55-1.53-1.93-2.28-3.01-3.27c-9.54-8.73-19.16-17.36-28.63-26.16c-31.74-29.5-62.13-60.27-89.25-94.15
			c-2.82-3.52-5.92-6.77-9.38-9.67c-5.58-4.68-11.9-7.6-19.2-8.61c-5.88-0.82-11.6-0.07-17.29,1.07
			c-9.56,1.91-18.77,5.09-28.06,7.99c-11.61,3.63-23.24,7.22-35.36,8.82c-14.75,1.95-29.16,0.84-42.96-5.17
			c-11.16-4.86-22.19-9.99-32.87-15.83c-14.18-7.74-27.65-16.52-39.62-27.46c-19.68-18.01-32.7-39.87-37.71-66.16
			c-3.72-19.5-6.31-39.17-7.92-58.97c-1.19-14.63-1.02-29.19,1.37-43.68c3.54-21.48,12.53-40.26,27.92-55.84
			c7.55-7.65,16.07-14.03,25.21-19.63c2.55-1.56,5.1-3.15,7.59-4.81c2.19-1.46,4.15-3.22,5.81-5.27c3.63-4.49,5.05-9.46,3.52-15.22
			c-1.23-4.62-3.32-8.73-6.41-12.34c-1.1-1.28-2.31-2.43-3.86-3.21c-1.46-0.73-2.81-0.74-4.29-0.04c-1.58,0.75-2.79,1.91-3.81,3.25
			c-1.24,1.64-2.37,3.37-3.51,5.08c-5.31,7.99-11.35,15.36-18.46,21.83c-14.2,12.93-30.98,20.78-49.51,25.18
			c-15.75,3.74-31.79,5.05-47.91,5.61c-6.18,0.22-12.37,0.15-18.54,0.42c-6.79,0.3-13.46-0.08-20.02-2.04
			c-2.89-0.86-5.88-1.04-8.9-0.9c-3.97,0.19-6.69,2.23-8.35,5.7c-0.64,1.33-1.05,2.81-1.36,4.26c-1.39,6.52-1.2,13.07,0.32,19.51
			c2.02,8.57,7.13,14.68,15.28,18.21c3.29,1.43,6.75,2.23,10.21,3.02c24.77,5.63,43.33,19.66,56.17,41.43
			c5.26,8.91,9.27,18.39,12.29,28.26c3.02,9.85,6.45,19.54,9.98,29.21c3.79,10.37,7.63,20.74,9.87,31.59
			c1.39,6.78,2.47,13.62,3.58,20.46c2.5,15.52,5.47,30.96,7.5,46.57c2.04,15.64,3.05,31.29,2.04,47.06
			c-0.56,8.62-1.94,17.1-4.09,25.46c-4.01,15.6-10.94,29.82-20.4,42.84c-1.43,1.96-2.88,3.95-3.98,6.1
			c-1.95,3.79-1.23,6.77,2.09,9.44c4.93,3.98,12.16,4.98,17.7,0.78c9.01-6.83,17.28-14.37,23.12-24.25
			c3.05-5.16,6.54-10.04,10.2-14.79c17.95-23.25,40.88-39.29,69.09-47.71c13.35-3.98,27.02-6.25,40.88-7
			c18.35-0.99,36.7-0.65,54.98,1.75c23.08,3.04,44.13,11.32,63.41,24.24c13.14,8.81,24.81,19.34,35.62,30.84
			c8.48,9.02,16.34,18.56,23.95,28.31c5.43,6.96,11.27,13.53,18.27,18.99c7.98,6.22,16.85,10.27,26.96,11.74
			c8.11,1.18,16.07,0.55,24-1.04C763.73,1606.86,765.99,1607.21,767.53,1605.43z M386.95,909.06c-1.5,0.45-2.57,1.79-3.77,2.87
			c-23.55,21.43-46.99,42.97-69.44,65.56c-22.07,22.21-42.97,45.43-62.18,70.18c-13.5,17.39-19.79,37.09-20.08,58.93
			c-0.12,8.66,0.89,17.2,2.51,25.66c1.19,6.24,2.8,12.4,4.93,18.42c2.68,7.58,7.97,11.95,15.88,13.36c4.66,0.84,9.3,0.94,13.98,0.4
			c7.25-0.83,14.5-1.74,21.76-2.51c4.29-0.45,8.63-0.68,12.9,0c8.4,1.33,16.82,1.17,25.22,0.57c6.15-0.44,12.32-1.23,18.34-2.5
			c9.13-1.92,17.09-6.51,24.5-12.05c11.06-8.27,20.29-18.27,27.97-29.72c5.24-7.81,9.57-16.07,12.34-25.1
			c2.69-8.74,3.31-17.43,1.06-26.52c-7.69-31.06-14.3-62.35-18.71-94.07c-2.32-16.69-4.3-33.4-5.42-50.22
			c-0.29-4.29-0.72-8.57-1.11-12.86C387.6,909.37,387.34,909.29,386.95,909.06z M1066.77,489.19c0.17,8.61,0.27,17.2,1.16,25.79
			c1.63,15.88,4.58,31.47,9.28,46.71c6.51,21.13,15.92,40.78,30.22,57.86c12.26,14.65,27.1,25.78,45.06,32.49
			c13.4,5,27.33,7.97,41.57,9.01c22.6,1.65,44.43-1.75,65.19-11.15c8.56-3.88,16.61-8.62,24.13-14.27c1.93-1.45,2.9-3.07,2.97-5.62
			c0.33-12.03-0.62-23.96-2.82-35.76c-3.29-17.66-6.64-35.29-8.77-53.14c-1.33-11.16-2.25-22.35-2.73-33.55
			c-0.47-11.03-0.31-22.07,0.49-33.11c0.85-11.78,2.38-23.44,4.35-35.07c1.86-10.96,2.22-21.98,0.22-32.97
			c-0.84-4.6-1.97-9.14-3.53-13.57c-0.6-1.7-1.58-2.92-3.32-3.53c-1.06-0.37-2.09-0.83-3.12-1.28c-19.33-8.35-39.5-13.88-60.1-18.05
			c-15.47-3.13-31.03-4.94-46.85-4.52c-9.03,0.24-17.92,1.34-26.65,3.61c-24.94,6.48-43.01,21.19-53.45,44.92
			c-2.57,5.83-4.65,11.84-6.32,17.99C1068.68,450.71,1066.53,469.8,1066.77,489.19z M332.47,1466.45
			c0.37-13.68-0.76-24.86-2.49-35.97c-2.33-15.01-6.19-29.67-10.72-44.16c-5.98-19.12-13.11-37.85-19.68-56.77
			c-0.55-1.59-1.25-3.13-2-4.64c-8.33-16.64-22.18-24.81-40.42-25.98c-8.85-0.57-15.1,3.45-18.71,11.55
			c-1.61,3.61-2.69,7.39-3.62,11.21c-1.29,5.29-2.98,10.42-5.02,15.47c-8.24,20.36-12.45,41.56-12.72,63.51
			c-0.18,15.04,1.65,29.89,4.78,44.59c4.11,19.29,10.5,37.86,17.86,56.11c8.97,22.24,19.35,43.84,29.33,65.63
			c0.62,1.36,1.37,2.68,2.23,3.89c4.03,5.69,9.72,7.47,16.3,5.1c1.58-0.57,3.1-1.35,4.55-2.2c3.42-2.01,6.32-4.68,8.99-7.59
			c5.33-5.8,10.32-11.88,14.87-18.32c5.65-7.99,10.51-16.41,13.8-25.65c3.95-11.08,5.97-22.45,4.18-34.21
			C332.76,1480.06,331.59,1472.13,332.47,1466.45z M1093.74,1702.58c-0.15,6.97,1.14,13.78,2.36,20.6
			c4.92,27.5,14.62,53.33,27.26,78.13c1.36,2.67,2.98,5.21,5.02,7.43c4.23,4.6,9.37,6.64,15.65,5.47c2.77-0.52,5.44-1.31,8.1-2.24
			c14.66-5.11,29.32-10.21,44.01-15.23c19.82-6.77,39.67-13.46,59.5-20.21c3.54-1.2,7.08-2.43,10.31-4.38
			c4.87-2.93,7.88-6.85,5.04-14.86c-0.62-1.75-1.54-3.42-2.5-5.01c-5.99-9.94-11.9-19.93-18.08-29.75
			c-7.8-12.37-16.4-24.17-26.15-35.09c-12.06-13.51-25.73-25.06-41.63-33.86c-4.92-2.72-9.99-5.13-15.34-6.89
			c-10.49-3.45-21.2-4.78-32.09-2.35c-14.95,3.33-26,11.98-33.35,25.33C1096.24,1679.9,1093.87,1690.98,1093.74,1702.58z
			 M421.42,1299.32c0,0-0.01,0-0.01,0c0,5.8-0.08,11.61,0.01,17.41c0.28,18.02,4.08,35.29,11.53,51.69
			c20.48,45.06,66.31,70.97,111.44,65.3c11.63-1.46,22.67-4.8,33.11-10.11c2.18-1.11,4.22-2.43,5.94-4.2
			c2.83-2.91,3.93-6.29,2.84-10.29c-0.7-2.54-1.66-4.98-2.99-7.25c-1.89-3.23-3.84-6.43-5.91-9.55
			c-10.66-16.07-21-32.35-31.19-48.73c-18-28.93-35.97-57.89-54.05-86.77c-2.71-4.32-4.93-8.8-6.52-13.63
			c-1.11-3.38-2.26-6.74-3.51-10.07c-0.92-2.45-2.1-4.8-3.68-6.92c-2.47-3.33-5.78-4.65-9.84-3.94c-1.28,0.22-2.53,0.65-3.76,1.09
			c-7.1,2.55-13.69,6.09-19.65,10.7c-15.82,12.24-24.25,28.14-23.79,48.42C421.53,1288.09,421.42,1293.71,421.42,1299.32z
			 M1456.05,1585.9c1.52-9.22,3.03-18.26,4.5-27.3c2.16-13.3,4.28-26.6,6.42-39.9c1.61-9.97,3.24-19.95,4.85-29.92
			c2.11-13.12,4.19-26.24,6.31-39.35c1.64-10.16,3.32-20.31,4.96-30.47c2.08-12.93,4.12-25.87,6.2-38.8
			c2.08-12.93,4.19-25.86,6.28-38.78c2.03-12.56,4.03-25.13,6.07-37.68c1.65-10.16,3.38-20.3,5.01-30.46
			c2.08-12.93,4.06-25.88,6.15-38.81c2.05-12.74,4.2-25.48,6.27-38.22c2.17-13.29,4.31-26.59,6.46-39.89
			c1.55-9.6,3.1-19.21,4.65-28.82c1.75-10.89-5.69-20.59-15.14-22.3c-1.29-0.23-2.54-0.62-3.83-0.89
			c-6.41-1.32-12.83-2.61-19.25-3.92c-19.42-3.97-38.85-7.94-58.27-11.93c-19.24-3.95-38.47-7.94-57.71-11.9
			c-18.87-3.88-37.75-7.75-56.62-11.62c-21.07-4.32-42.15-8.62-63.22-12.94c-19.24-3.95-38.48-7.91-57.71-11.86
			c-20.89-4.29-41.82-8.36-62.66-12.9c-22.71-4.95-45.65-8.31-68.77-10.43c-11.37-1.04-22.79-1.66-34.2-2.14
			c-16.12-0.67-32.22-0.22-48.22,1.98c-5.37,0.74-10.71,1.82-15.81,3.73c-3.34,1.24-6.59,2.7-9.21,5.24
			c-2.99,2.9-3.66,5.83-2.13,9.69c1.05,2.64,2.69,4.93,4.52,7.07c9.17,10.76,20.76,17.59,34.36,21.16c0.49,0.13,1.07-0.07,1.92-0.15
			c-1.05-1.95-2.11-3.67-2.93-5.49c-3.19-7.02-2.43-16.65,5.79-22.52c3.57-2.55,7.5-4.22,11.71-5.27
			c5.46-1.36,11.01-2.25,16.65-2.34c8.99-0.14,17.96-0.01,26.94,0.92c9.32,0.96,18.61,2.15,27.78,3.96
			c15.78,3.12,31.47,6.67,47.2,10.06c30.9,6.66,61.8,13.34,92.71,19.98c38.77,8.33,77.55,16.6,116.32,24.94
			c32.55,7,65.09,14.05,97.64,21.07c13.9,3,27.84,5.78,41.67,9.05c12.71,3.01,20.86,11.22,24.81,23.61
			c1.75,5.48,1.59,11.08,0.71,16.68c-0.96,6.1-1.95,12.19-2.91,18.29c-2.03,12.94-4.04,25.88-6.08,38.82
			c-2.45,15.52-4.93,31.04-7.38,46.57c-1.69,10.72-3.33,21.45-5.02,32.17c-2.45,15.52-4.93,31.04-7.37,46.57
			c-2.04,12.94-4.03,25.88-6.07,38.82c-2.45,15.52-4.95,31.04-7.39,46.57c-2.04,12.94-4.02,25.89-6.05,38.82
			c-2.12,13.49-4.26,26.98-6.4,40.47c-1.73,10.9-3.5,21.8-5.21,32.7c-0.96,6.1-1.77,12.23-2.8,18.31c-0.43,2.54,0.05,4.76,1.17,7.02
			c3.49,7.05,6.87,14.14,10.31,21.22C1454.31,1585.05,1454.58,1585.79,1456.05,1585.9z M1434.88,1639.99
			c0.1-4.16-1.25-7.86-2.88-11.45c-1.94-4.26-4.1-8.42-6.13-12.64c-10.88-22.61-21.43-45.38-32.93-67.69
			c-2.5-4.84-4.76-9.74-6.49-14.91c-0.77-2.3-1.69-4.58-2.81-6.73c-3.51-6.77-8.75-9.44-16.19-8.27c-7.6,1.19-14.24,4.41-19.93,9.63
			c-6.26,5.75-10.04,12.97-12.69,20.9c-2.73,8.19-4.41,16.64-6.23,25.06c-0.27,1.26-0.32,2.61-0.21,3.9
			c0.51,6.16,1.03,12.31,1.68,18.46c1.93,18.17,6.36,35.71,13.29,52.64c2.2,5.37,4.07,10.87,6.08,16.31
			c2.21,5.97,4.31,11.98,6.64,17.9c1.72,4.37,3.99,8.46,6.94,12.15c4.95,6.19,11.25,8.31,18.98,6.54c6.39-1.45,11.83-4.59,16.7-8.84
			c5.11-4.46,9.48-9.6,13.46-15.06c6.4-8.78,12.71-17.63,19.02-26.47C1433.63,1647.99,1435.09,1644.19,1434.88,1639.99z
			 M611.68,354.02c1.87-0.14,2.69-1.55,3.76-2.49c26.12-23,49.35-48.64,70.02-76.62c13.03-17.64,24.94-36.03,35.89-55.03
			c8.76-15.2,19.26-29.01,32.25-40.86c0.55-0.5,1.1-1.01,1.6-1.56c0.49-0.53,0.07-1.57-0.7-1.66c-6.14-0.71-12.27-1.62-18.42-2.06
			c-15.02-1.09-29.96-0.56-44.68,2.99c-20.79,5.01-37.31,16-48.63,34.41c-3.63,5.91-7,11.95-9.91,18.25
			c-6.55,14.15-11.38,28.88-15.09,44c-5.69,23.24-8.53,46.76-7.3,70.72C610.65,347.44,610.76,350.77,611.68,354.02z M1139.67,343.79
			c-0.08-0.7-0.01-1.13-0.18-1.4c-9.93-15.73-21.26-30.29-35.15-42.8c-28.49-25.66-62.21-37.91-100.15-39.58
			c-10.68-0.47-21.33,0.06-31.95,1.16c-3.53,0.36-7.04,0.93-10.55,1.47c-1.07,0.17-1.46,1.2-0.85,2.1c1.26,1.86,2.59,3.67,3.89,5.5
			c7.91,11.17,14.6,23.07,21.1,35.09c5.16,9.54,10.22,19.15,16.62,27.96c4.88,6.71,10.51,12.69,17.51,17.22
			c13.59,8.79,28.55,11.85,44.51,10.26c8.94-0.89,17.74-2.64,26.45-4.87c13.04-3.34,26.08-6.65,39.14-9.93
			C1133.24,345.17,1136.48,344.51,1139.67,343.79z M651.68,1604.08c-3.31-7.07-7.46-13.72-12.12-20.05
			c-13.51-18.37-31.05-31.14-52.83-38.13c-15.3-4.91-31.06-6.86-46.99-7.42c-11.04-0.39-22.1-0.2-33.15,0.02
			c-5.42,0.11-10.88,0.5-16.21,1.41c-11.77,2.02-21.79,7.7-30.56,15.68c-7.1,6.45-13.24,13.76-19.11,21.3
			c-1.73,2.23-3.09,4.67-3.81,7.45c-1.24,4.82,0.4,8.51,4.89,10.64c2.56,1.22,5.31,1.75,8.15,1.86c17.97,0.69,35.89,2.08,53.82,3.43
			c5.23,0.4,10.45,0.93,15.67,1.37c11.75,0.99,23.5,2.04,35.27,2.91c9.15,0.67,18.32,1.1,27.48,1.62
			c21.73,1.24,43.44,0.87,65.13-0.68C648.77,1605.37,650.33,1605.47,651.68,1604.08z M1705.06,858.75
			c0.06-10.12-3.22-19.13-9.55-26.94c-4.44-5.48-10.33-8.53-17.46-9.02c-3.77-0.26-7.49,0.04-11.15,0.92
			c-3.83,0.92-7.69,1.54-11.61,1.99c-5.97,0.69-11.97,0.62-17.95,1c-6.73,0.42-13.43,1-19.95,2.96
			c-10.54,3.16-17.33,10.03-20.58,20.45c-3.59,11.52-3.29,22.9,1.65,34c7.46,16.75,19.09,29.87,34.72,39.44
			c4.17,2.55,8.61,4.48,13.38,5.69c6.65,1.68,12.97,1.09,19.07-2.09c4.53-2.36,8.55-5.4,12.18-8.95
			c10.22-10.01,17.42-21.96,22.31-35.33C1702.98,875.1,1704.91,867.11,1705.06,858.75z M1510.32,805.58
			c7.8-0.07,15.23-0.83,22.27-3.78c7.64-3.2,13.11-8.56,16.09-16.32c0.8-2.09,1.5-4.24,2.01-6.42c1.54-6.59,1.98-13.31,2.32-20.05
			c0.38-7.66,0.64-15.38,3.13-22.74c0.92-2.74,1.29-5.44,0.99-8.27c-0.33-3.17-0.5-6.36-1.05-9.49c-0.42-2.37-1.15-4.74-2.07-6.97
			c-1.67-4.06-4.72-6.71-9.05-7.66c-2-0.44-4.04-0.83-6.08-0.95c-6.02-0.34-11.96,0.35-17.82,1.81
			c-13.89,3.47-26.1,10.16-37.13,19.15c-6.44,5.25-12,11.26-16.51,18.27c-5.82,9.03-7.34,18.61-4.32,29
			c4.83,16.59,15.23,27.61,31.94,32.46C1500.1,805.11,1505.32,805.49,1510.32,805.58z M1712.48,995.08
			c-3.13-0.18-5.94-0.58-8.73-0.47c-22.77,0.88-35.86,18.13-40.68,32.67c-0.47,1.43-0.18,2.55,1.23,3.31
			c1.15,0.62,2.26,1.33,3.39,1.99c17.12,10.03,34.25,20.06,51.37,30.08c5.98,3.5,11.97,6.97,17.93,10.5c1.1,0.65,2.04,0.76,3.01-0.2
			c9.29-9.17,17.11-19.36,21.78-31.69c2.39-6.29,2.75-12.72,1.14-19.3c-2.97-12.16-10.23-20.15-22.4-23.49
			c-1.62-0.45-3.26-0.84-4.91-1.17C1727.87,995.75,1720.02,995.31,1712.48,995.08z M1326.09,572.85c1.99,0.41,2.01-1.4,2.5-2.39
			c9.13-18.44,17.44-37.23,24.53-56.56c4.9-13.35,9.18-26.86,12.34-40.75c1.42-6.26,0.47-11.81-2.53-17.27
			c-2.64-4.79-5.99-9.04-9.71-13c-7.98-8.5-17.02-15.74-26.6-22.35c-0.43-0.29-0.94-0.68-1.85,0.05c-0.03,1.34-0.11,2.97-0.09,4.6
			c0.12,9.21-0.9,18.34-2.77,27.31c-5.21,25.01-5.13,50.18-2.52,75.42C1320.94,542.98,1323.38,557.94,1326.09,572.85z
			 M927.55,1118.2c-7.85,2.34-15.05,4.15-21.64,7.72c-1.14,0.62-2.24,1.38-3.22,2.23c-3.05,2.66-5.19,5.89-5.57,10.02
			c-0.98,10.64,1.86,20.34,7.65,29.19c1.86,2.85,4.48,5,7.81,6.1c4.55,1.5,5.97,0.67,6.82-4c0.13-0.73,0.18-1.48,0.3-2.22
			c1.37-8.46,2.76-16.93,4.11-25.39C925.02,1134.32,926.2,1126.78,927.55,1118.2z"/>
		<path class="st1" d="M875.84,1409.78c-11.62,1.45-18.96,8.04-22.94,18.85c-2.74,7.44-3.89,15.2-5.1,22.97
			c-0.14,0.92-0.25,1.84-0.37,2.68c-1.15,0.61-1.89,0-2.61-0.6c-11.16-9.45-21.85-19.4-31.94-30
			c-17.32-18.2-33.21-37.64-49.06-57.11c-3.9-4.79-7.88-9.53-11.78-14.32c-1.3-1.6-2.58-3.23-3.65-4.97
			c-2.99-4.84-2.69-9.64,0.74-14.12c1.36-1.77,2.96-3.4,4.63-4.89c17.63-15.71,35.67-30.92,54.74-44.87
			c32.78-23.99,67.61-44.39,105.26-59.78c24.67-10.08,50.06-17.8,76.25-22.82c13.43-2.58,26.93-4.52,40.55-5.75
			c15.69-1.42,31.4-2.27,47.14-1.73c15.9,0.55,31.76,1.51,47.36,5.24c26.93,6.43,50.83,18.68,72.09,36.29
			c12.77,10.58,23.68,22.89,34.09,35.71c27.47,33.83,51.19,70.19,73,107.84c15.31,26.42,29.46,53.47,43.63,80.5
			c1.3,2.48,2.59,4.97,2.9,7.85c0.37,3.4-0.51,6.25-3,8.66c-2.19,2.12-4.76,3.61-7.42,5.01c-8,4.18-15.46,9.15-22.36,14.98
			c-15.71,13.27-25.84,29.97-30.42,49.96c-3.32,14.52-3.93,29.21-2.74,44.09c1.18,14.78,3.35,29.38,6.5,43.83
			c3.52,16.15,9.17,31.62,15.94,46.68c6.91,15.39,14.55,30.4,23.29,44.84c0.77,1.27,1.37,2.66,1.97,4.02
			c1.58,3.55,0.58,6.57-2.04,9.19c-0.66,0.66-1.36,1.3-2.12,1.84c-7.68,5.45-12.6,3.66-16.66-2.63c-3.05-4.71-5.67-9.7-8.5-14.55
			c-10.2-17.49-21.16-34.48-33.65-50.44c-16.41-20.96-35.3-39.26-57.66-53.83c-10.87-7.08-22.41-12.77-34.94-16.43
			c-18.87-5.52-37.66-5.34-56.46,0.18c-11.21,3.29-21.78,7.96-31.56,14.39c-16.81,11.06-27.92,26.36-33.93,45.43
			c-2.65,8.41-4.08,17.06-5.08,25.84c-1.15,10.1-0.72,20.2-0.96,30.3c-4.29-0.31-7.76-2.52-11.06-4.96
			c-1.01-0.75-1.77-1.93-2.41-3.05c-2.13-3.74-4.26-7.48-6.21-11.31c-8.33-16.35-16.48-32.79-24.18-49.45
			c-0.16-0.34-0.33-0.67-0.48-1.02c-3.86-9.12-7.62-18.28-11.58-27.36c-5.61-12.86-10.41-26.02-15.1-39.23
			c-5.64-15.85-10.61-31.92-14.94-48.17c-1.92-7.2-3.89-14.4-5.2-21.77c-1.24-6.97-2.87-13.86-4.12-20.83
			c-0.98-5.5-2.05-11.03-2.33-16.59c-0.26-5.05-1.83-9.95-1.38-15.04c-1.97-5.57-0.87-11.48-1.87-17.22
			c-1.09-6.18-0.68-12.63-1.19-18.97c-0.92-11.35,0.5-22.82-1.26-34.17c0.48-15.33-0.65-30.65,0.8-46
			c0.93-9.85,0.32-19.85,0.22-29.78c-0.04-4.42-3.23-8.45-7.42-9.53c-3.35-0.86-6.62-0.88-9.29,2.13c-1.98,2.24-4.09,4.34-5.7,6.91
			c-2.17,3.48-4.53,6.85-6.81,10.26c-7.7,11.51-14.8,23.33-20.61,35.95c-4.79,10.41-8.55,21.13-11.42,32.19
			c-0.98,3.77-1.35,7.7-2.07,11.55c-0.34,1.82-0.43,3.86-1.36,5.35c-1.1,1.76-3.54,0.45-5.24,1.2
			C876.44,1409.32,876.15,1409.57,875.84,1409.78z"/>
		<path class="st2" d="M609.8,434.63c1.21,0.43,1.54,1.34,1.99,2.15c14.14,25.12,33.63,45.31,56.97,61.98
			c7.79,5.56,15.92,10.55,24.21,15.32c13.94,8.03,29.01,13.03,44.63,16.41c16.21,3.5,32.66,4.62,49.18,3.43
			c19.36-1.39,38.09-5.71,56.11-13.04c14.29-5.81,27.76-13.09,40.58-21.65c18.24-12.19,35.65-25.51,53.14-38.73
			c9.56-7.23,19.1-14.5,29.1-21.14c7.19-4.77,14.53-9.29,22.55-12.55c5.75-2.34,11.66-4.13,17.98-3.9
			c9.37,0.34,16.97,4.23,22.71,11.61c4.84,6.21,7.08,13.58,8.72,21.12c1.91,8.79,2.96,17.71,3.64,26.68
			c1.09,14.37,2.19,28.75,3.45,43.11c1.21,13.81,2.95,27.54,6.52,40.98c5.74,21.64,14.95,41.52,29.4,58.82
			c13.09,15.67,29.05,27.52,47.58,35.93c14.24,6.46,29.16,10.6,44.67,12.71c10.8,1.47,21.62,2.31,32.5,1.82
			c22.63-1.01,44.63-5.01,65.39-14.48c3.06-1.4,6.01-3.05,9.03-4.56c0.78-0.39,1.49-1.17,2.87-0.38c-0.48,2-0.92,4.16-1.52,6.26
			c-5.27,18.46-14.26,34.98-26.29,49.86c-4.35,5.38-8.96,10.58-13.71,15.63c-15.54,16.52-31.45,32.68-48.08,48.11
			c-25.04,23.23-51.46,44.75-80.05,63.52c-33.21,21.81-68.5,39.32-106.44,51.34c-19.67,6.23-39.71,10.87-60.09,14
			c-7.76,1.19-15.6,1.91-23.43,2.71c-11.85,1.2-23.55,0.04-35.28-1.14c-18.69-1.88-36.98-5.72-54.89-11.36
			c-34.42-10.85-65.19-28.24-92.64-51.61c-22.97-19.56-42.61-42.1-59.95-66.72c-27.61-39.19-48.82-81.55-63.38-127.24
			c-7.4-23.22-13.03-46.86-16.85-70.94c-1.93-12.21-3.48-24.45-4.6-36.76c-1.18-13.07-2.27-26.13-1.83-39.25
			c0.71-21.13,4.49-41.65,12.7-61.24C607.38,439.09,608.17,436.6,609.8,434.63z M1147.31,727.68c8.97,0.14,15.23-3.92,19.4-11.42
			c1.27-2.29,2.15-4.74,2.85-7.3c2.22-8.16-0.36-14.74-6.4-20.2c-2.36-2.14-5.04-3.87-7.86-5.39c-6.12-3.29-12.45-6.09-19.04-8.25
			c-16.09-5.28-32.56-6.88-49.33-4.48c-14.96,2.14-29.07,7.01-42.51,13.86c-14.35,7.32-28.44,15.12-42.4,23.15
			c-19.65,11.29-39.14,22.86-59.2,33.41c-13.99,7.36-28.46,13.22-44.38,15.12c-14.15,1.69-27.17-1.11-39.25-8.54
			c-8.09-4.97-14.63-11.64-20.46-19.04c-6.76-8.58-12.09-18.02-16.89-27.8c-8.58-17.49-15.97-35.51-23.5-53.46
			c-6.08-14.5-12.18-29-19.06-43.15c-7.18-14.76-16.34-28.14-27.71-40.02c-17.16-17.93-37.66-30.66-60.86-39.22
			c-3.54-1.3-7.17-2.24-10.88-2.71c-9.23-1.18-17.89,1.86-22.63,11.84c-1.22,2.56-2.19,5.21-2.67,7.96
			c-1.44,8.27,0.98,15.14,7.77,20.33c3.61,2.76,7.64,4.75,11.86,6.3c21.77,8.03,39,21.91,52.71,40.44
			c9.53,12.88,16.79,27.02,23.09,41.67c6.07,14.1,11.87,28.31,17.91,42.42c7.52,17.57,15.6,34.88,25.36,51.33
			c16.14,27.19,38.82,46.36,69.39,55.44c12.02,3.57,24.17,6.04,37.04,4.39c17.44-2.23,34.11-6.69,50.05-14.03
			c8.52-3.93,16.58-8.7,24.67-13.4c23.96-13.94,47.68-28.27,71.99-41.6c11.18-6.13,22.55-11.83,34.98-15.07
			c10.82-2.82,21.71-3.8,32.81-1.77c5.93,1.08,11.63,2.82,17.13,5.25C1136.46,726.03,1141.77,727.78,1147.31,727.68z M895.02,560.66
			c0-1.12,0.07-2.24-0.01-3.36c-0.56-8.06-4.59-13.58-12.12-16.59c-2.19-0.87-4.25-1.03-6.53-0.34c-7.71,2.34-13.66,6.86-17.41,14
			c-4.6,8.75-6.67,18.17-6.64,28.03c0.01,3.8,1.06,7.36,2.93,10.68c1.97,3.48,5.02,5.62,8.86,6.23c6.99,1.1,13.36-0.48,18.75-5.27
			c2.7-2.39,4.69-5.31,6.25-8.53C892.91,577.67,894.61,569.31,895.02,560.66z M995.25,591.92c0.05-5.13-0.21-9.77-1.9-14.24
			c-2.73-7.21-7.52-9.85-14.94-8.15c-10.51,2.41-17.53,8.71-21.21,18.82c-2.53,6.96-3.01,14.22-3.24,21.51
			c-0.06,2.03,0.32,4.1,0.68,6.12c1.94,10.87,13.87,16.17,23.32,10.39c7.13-4.36,12.06-10.51,14.86-18.37
			C994.72,602.66,995.46,597.13,995.25,591.92z"/>
		<path class="st1" d="M850.06,1031.17c-1.65,6.72-3.44,13.4-4.91,20.16c-2.39,10.98-3.88,22.08-4.47,33.34
			c-0.47,9.01-0.28,18,0.61,26.92c1.62,16.28,5.51,32.06,11.89,47.18c1.45,3.45,3.07,6.83,4.53,10.27
			c1.91,4.49,3.49,9.04,3.89,13.99c0.62,7.74-2.2,13.91-7.95,18.87c-3.85,3.32-8.18,5.92-12.74,8.16
			c-11.44,5.62-22.6,11.73-33.45,18.41c-19.18,11.8-37.31,25.04-54.5,39.59c-11.88,10.06-23.23,20.67-34.17,31.73
			c-0.79,0.8-1.58,1.6-2.41,2.36c-1.13,1.03-1.77,0.98-2.69-0.37c-2.43-3.55-4.82-7.14-7.21-10.72
			c-18.15-27.29-35.86-54.86-52.41-83.16c-21.21-36.25-40.32-73.53-55.65-112.68c-13-33.2-22.91-67.28-29.24-102.38
			c-0.66-3.66-1.73-7.31-1.45-11.11c0.98,0.02,1.81-0.31,2.56-0.95c2.55-2.19,5.15-4.33,7.66-6.56
			c8.14-7.23,17.02-13.46,26.54-18.67c14.85-8.12,30.44-14.18,47.3-16.82c7.4-1.16,14.75-2.26,22.25-2.05
			c8.77,0.26,17.54-0.3,26.32,0.99c6.26,0.92,12.58,1.7,18.75,2.99c11.15,2.33,22.13,5.38,32.85,9.34
			c9.34,3.45,18.33,7.6,26.69,12.99c9.27,5.98,18.31,12.3,26.18,20.13c0.66,0.66,1.41,1.22,2.15,1.8c5.64,4.4,10.41,9.7,15.27,14.87
			c5.11,5.44,9.89,11.19,14.84,16.79c1.49,1.68,2.97,3.34,4.37,5.1C844.13,1024.99,847.17,1028.02,850.06,1031.17z"/>
		<path class="st3" d="M859.72,1610.06c-2.1-0.29-3.8-1.53-5.59-2.46c-27.24-14.16-52.19-31.61-75.12-52
			c-17.11-15.21-32.93-31.7-48.59-48.37c-48.96-52.13-94.06-107.36-134.06-166.7c-41.05-60.91-75.91-125.13-103.48-193.25
			c-21.4-52.87-37.89-107.24-49.78-163.02c-5.45-25.55-8.47-51.36-7.79-77.51c0.57-21.78,3.35-43.29,8.69-64.44
			c1.33-5.27,3.03-10.41,5.48-15.3c2.99-5.96,7.03-11.03,12.34-15.09c4.61-3.53,9.13-7.18,13.8-10.63c3.48-2.57,7.26-4.6,11.55-5.6
			c2.62-0.61,5.15-0.57,7.76,0.11c5.56,1.44,8.6,5.01,9.4,10.6c0.35,2.43,0.31,4.88-0.18,7.27c-2.03,9.98-2.09,20.08-2.05,30.21
			c0.05,16.12,0.54,32.22,1.75,48.29c4.45,58.91,16.26,116.34,34.99,172.35c17.81,53.26,41.23,104,68.77,152.89
			c28.09,49.86,60.04,97.17,94.37,142.9c17.55,23.37,35.43,46.5,54.5,68.67c18.24,21.19,37.51,41.36,58.75,59.59
			c17.96,15.42,28.98,35,34.76,57.77c3,11.82,4.85,23.84,6.61,35.88c1.11,7.59,2.14,15.2,3.15,22.81
			C860,1606.63,860.56,1608.28,859.72,1610.06z"/>
		<path class="st4" d="M1371.86,971.36c6.56,3.96,13.08,7.99,19.69,11.86c41.02,24.06,82.06,48.08,123.1,72.11
			c42.81,25.07,85.63,50.14,128.45,75.21c23.27,13.62,46.54,27.23,69.81,40.85c0.81,0.47,1.59,0.99,2.43,1.41
			c9.27,4.64,14.42,17.29,9.84,28.65c-2.8,6.94-5.8,13.8-8.74,20.69c-25.7,60.26-51.41,120.51-77.1,180.77
			c-27.45,64.39-54.89,128.79-82.33,193.19c-14.97,35.12-29.94,70.25-44.92,105.37c-0.29,0.69-0.69,1.33-1.03,2
			c-0.92-0.01-2.02,0.26-2.63-0.59c-1.52-2.11-3.49-3.89-4.6-6.33c-1.4-3.06-2.98-6.05-4.52-9.04c-4.79-9.32-6.27-19.46-7.06-29.7
			c-0.31-4.06,0.17-8.15,0.73-12.25c0.52-3.85,1.21-7.72,1.52-11.62c0.35-4.43,1.25-8.82,1.87-13.24c0.5-3.5,0.98-7,1.4-10.51
			c0.48-4.07,0.44-8.26,1.45-12.18c1.09-4.21,0.95-8.5,1.7-12.72c0.7-3.97,1.38-8.05,1.59-12.18c0.16-3.11,0.37-6.4,1.16-9.38
			c0.97-3.66,0.83-7.39,1.64-11.05c0.71-3.21,1.09-6.6,1.46-9.93c0.45-4.07,0.43-8.26,1.44-12.18c1.08-4.21,0.88-8.5,1.71-12.72
			c0.6-3.04,1.23-6.19,1.42-9.37c0.25-4.08,0.84-8.14,1.38-12.2c0.59-4.42,1.34-8.81,1.91-13.23c0.53-4.06,0.48-8.25,1.47-12.18
			c1.06-4.2,0.85-8.5,1.71-12.72c0.58-2.85,1.16-5.83,1.38-8.81c0.3-4.08,0.55-8.21,1.37-12.2c1.02-4.94,1.06-9.99,2-14.92
			c0.7-3.67,0.86-7.41,1.46-11.06c0.43-2.6,0.75-5.15,0.78-7.76c1.12-0.01,2.25,0.04,3.37-0.05c2.64-0.21,4.56-1.57,5.79-3.88
			c0.53-0.99,0.97-2.03,1.41-3.06c20.28-47.12,40.55-94.24,60.82-141.37c0.3-0.69,0.61-1.37,0.86-2.08
			c1.31-3.66,0.53-6.54-2.57-8.95c-1.48-1.14-3.12-2.08-4.71-3.06c-11.77-7.31-23.56-14.61-35.33-21.93
			c-1.27-0.79-2.49-1.66-3.73-2.5c0.03-2.43-0.3-4.93,0.16-7.28c1.01-5.12,1.16-10.34,2.1-15.45c0.68-3.68,0.67-7.45,1.44-11.05
			c0.93-4.39,0.96-8.86,1.72-13.26c0.44-2.54,1.41-5.07,1.24-7.69c-0.27-4.16,1.02-8.13,1.47-12.19c0.57-5.15,1.05-10.36,2.04-15.45
			c0.75-3.86,0.7-7.79,1.53-11.6c1.14-5.2,1.31-10.57,0.35-15.61c-3.08-16.25-12.28-27.64-28.18-33.34
			c-4.63-1.66-9.41-2.15-14.16-3.02c-3.47-0.63-7.01-0.87-10.5-1.44c-8.25-1.35-16.45-2.98-24.73-4.12
			c-5.89-0.81-11.77-1.78-17.63-2.7c-6.04-0.95-12.13-1.71-18.15-2.91c-6.92-1.38-13.94-2.23-20.89-3.42
			c-18.04-3.09-33.02-11.41-44.03-26.25c-5.37-7.24-9.53-15.08-11.69-23.96c-1.42-5.85-2.4-11.67-2.11-17.69
			c0.14-2.98-0.19-6.06,0.43-8.93C1371.69,976.52,1371.76,973.96,1371.86,971.36z"/>
		<path class="st2" d="M777.62,508.31c-33.54,0.15-64.35-10.61-92.21-30.26c-19.51-13.76-35.94-30.53-48.73-50.76
			c-3.51-5.55-6.62-11.31-9.55-17.18c-0.91-1.82-0.63-3.12,0.55-4.58c5.89-7.32,12.25-14.18,19.3-20.39
			c25.53-22.48,48.78-47.09,69.59-74.01c16.65-21.54,31.45-44.28,44.61-68.09c7.89-14.27,18-26.7,31.24-36.39
			c6.69-4.9,13.99-8.63,21.9-11.24c2.88-0.95,5.35-0.81,8.09,0.42c15.91,7.14,31.34,15.22,46.28,24.2
			c15.92,9.57,31.22,20.03,45.48,31.96c10.38,8.68,20.08,18.01,28.24,28.86c3.28,4.36,6.13,8.96,8.57,13.83
			c0.59,1.17,1.19,2.34,1.91,3.42c5.66,8.44,8.31,17.89,9.7,27.85c2.07,14.79-0.21,29.14-4.32,43.25
			c-6.36,21.81-16.91,41.61-30.11,59.98c-19.17,26.68-43.49,47.36-73.23,61.52c-16.34,7.78-33.42,13.1-51.37,15.65
			C795.22,507.54,786.86,508.4,777.62,508.31z M735.02,397.65c-0.02,9.78,0.63,19.47,2.48,29.07c1.36,7.03,3.47,13.82,7.09,20.02
			c7.44,12.74,18.99,19.85,33,23.3c7,1.73,14.06,1.72,21.16,0.25c8.97-1.86,16.95-5.81,24.41-10.96
			c10.71-7.4,19.83-16.54,28.37-26.28c10.05-11.47,18.39-24.1,25-37.85c10.9-22.67,15.55-46.76,15.87-71.77
			c0.07-5.23-0.41-10.47-0.78-15.7c-0.6-8.45-2.44-16.63-5.59-24.52c-9.44-23.65-37.03-35.52-59.08-29.25
			c-10.47,2.98-19.66,8.2-28.07,14.91c-12.06,9.63-22.79,20.6-31.93,33.04C746.02,330.38,735.05,362.21,735.02,397.65z"/>
		<path class="st2" d="M1623.22,1006.44c-2.49-1.41-4.77-2.67-7.02-3.98c-33.29-19.5-66.5-39.15-99.92-58.43
			c-9.88-5.7-20.29-10.5-30.6-15.4c-20.3-9.66-41.05-18.26-62.48-25.13c-10.53-3.38-21.19-6.26-32.12-7.94
			c-8.51-1.3-17.06-2.19-25.71-0.58c-10.32,1.92-17.72,7-21.95,17.01c-16.97,40.19-34.2,80.26-51.33,120.38
			c-1.25,2.93-2.42,5.89-3.71,8.8c-0.86,1.95-1.26,2.15-3.47,1.7c-8.99-1.81-17.97-3.66-26.95-5.5
			c-22.91-4.69-45.83-9.38-68.74-14.08c-12.83-2.63-25.66-5.28-38.48-7.94c-0.5-0.1-1.28-0.12-1.12-0.91
			c0.09-0.47,0.44-1.02,0.84-1.3c5.84-4.08,11.74-8.06,17.55-12.17c34.08-24.07,65.57-51.15,94.22-81.49
			c21-22.24,40.25-45.92,57.59-71.13c9.8-14.25,20.82-27.46,33.3-39.44c12.2-11.71,25.48-22.07,39.56-31.41
			c2.5-1.66,5.1-3.14,7.95-4.16c4.66-1.67,8.81-0.96,12.41,2.56c1.9,1.85,3.52,3.9,4.73,6.25c1.63,3.16,3.2,6.35,4.69,9.58
			c5.72,12.34,12.96,23.65,22.72,33.21c13.22,12.97,28.98,21.01,47.24,24.2c12.11,2.12,24.21,2.02,36.35,0.34
			c2.59-0.36,5.23-0.48,7.84-0.42c7.14,0.16,11.12,3.4,12.62,10.4c0.67,3.1,1.02,6.29,1.26,9.45c2.55,32.52,16.64,59.06,41.5,79.99
			c8.48,7.14,17.72,13.18,27.54,18.35c2.32,1.22,4.6,2.53,6.81,3.93c1.41,0.9,2.74,1.97,3.98,3.09c3.38,3.07,4.28,6.92,3.19,11.26
			c-0.36,1.44-0.84,2.9-1.52,4.22C1629.18,995.25,1626.27,1000.68,1623.22,1006.44z"/>
		<path class="st4" d="M977.26,1072.59c12.46,5.44,25.83,7.47,39,10.22c19.23,4.01,38.48,7.89,57.72,11.83
			c21.26,4.35,42.51,8.69,63.77,13.06c20.71,4.25,41.41,8.52,62.11,12.77c21.25,4.36,42.51,8.71,63.77,13.07
			c20.71,4.25,41.41,8.51,62.11,12.77c17.4,3.58,34.81,7.16,52.21,10.76c1.83,0.38,3.69,0.71,5.45,1.32
			c8.82,3.07,14.3,12.05,12.85,21.29c-1.94,12.38-4.08,24.74-6.07,37.11c-2.43,15.15-4.76,30.31-7.19,45.46
			c-2.43,15.15-4.97,30.28-7.4,45.43c-2.43,15.15-4.79,30.31-7.19,45.46c-1.93,12.2-3.87,24.39-5.84,36.58
			c-0.14,0.89-0.56,1.74-0.84,2.59c-1.56-0.37-1.66-1.64-2.11-2.56c-6.57-13.46-13.01-26.99-19.65-40.41
			c-2.82-5.7-6.15-11.15-9.08-16.79c-9.17-17.67-20.68-33.87-31.62-50.43c-1.44-2.17-3.19-4.18-5.04-6.02
			c-8.01-7.95-14.77-16.92-21.49-25.93c-12.58-16.89-26.89-32.21-42.87-45.92c-25.64-22.01-54.48-38.2-87.07-47.52
			c-12.43-3.56-25.06-5.99-37.88-7.77c-19.97-2.76-40-2.74-60.01-1.68c-17.57,0.93-35,3.47-52.25,7.05
			c-8.97,1.86-17.89,3.98-26.84,5.96c-1.09,0.24-2.22,0.31-3.33,0.47c-0.05-3.94,1.21-7.69,1.71-11.56
			c0.43-3.31,1.11-6.59,1.63-9.89c0.61-3.85,1.13-7.71,1.76-11.56c0.87-5.31,2.11-10.58,2.65-15.93c0.65-6.49,2.13-12.82,3.07-19.24
			c0.54-3.67,0.88-7.38,1.6-11.02C975.48,1078.53,975.29,1075.26,977.26,1072.59z"/>
		<path class="st3" d="M875.84,1409.78c0.31-0.21,0.6-0.46,0.93-0.61c1.7-0.76,4.13,0.56,5.24-1.2c0.93-1.49,1.02-3.53,1.36-5.35
			c0.72-3.85,1.09-7.77,2.07-11.55c2.86-11.05,6.63-21.78,11.42-32.19c5.8-12.62,12.91-24.44,20.61-35.95
			c2.28-3.41,4.64-6.78,6.81-10.26c1.6-2.57,3.71-4.67,5.7-6.91c2.66-3.01,5.93-2.99,9.29-2.13c4.19,1.08,7.38,5.1,7.42,9.53
			c0.1,9.93,0.71,19.93-0.22,29.78c-1.45,15.35-0.32,30.68-0.8,46c1.76,11.35,0.34,22.82,1.26,34.17
			c0.51,6.34,0.11,12.79,1.19,18.97c1.01,5.74-0.09,11.65,1.87,17.22c-0.45,5.09,1.13,9.99,1.38,15.04
			c0.28,5.56,1.35,11.09,2.33,16.59c1.25,6.96,2.88,13.86,4.12,20.83c1.31,7.36,3.28,14.57,5.2,21.77
			c4.33,16.25,9.3,32.32,14.94,48.17c4.7,13.21,9.5,26.37,15.1,39.23c3.96,9.08,7.73,18.24,11.58,27.36
			c0.15,0.34,0.32,0.68,0.48,1.02c7.7,16.66,15.85,33.1,24.18,49.45c1.95,3.83,4.07,7.58,6.21,11.31c0.64,1.12,1.4,2.31,2.41,3.05
			c3.31,2.45,6.78,4.65,11.06,4.96c2.06,7.77,4.16,15.52,6.18,23.3c3.01,11.58,6.02,23.16,8.93,34.76c1,3.98,1.8,8.02,2.53,12.06
			c0.57,3.2,1.86,6.07,3.56,8.78c2.08,3.33,4.25,6.62,6.27,9.99c1.84,3.08,3.23,6.31,3.15,10.03c-0.04,1.99-0.72,3.59-2.04,5.06
			c-2.07,2.32-4.69,3.79-7.54,4.72c-9.6,3.13-19.08,6.7-28.97,8.81c-6.38,1.36-12.76,2.3-19.44,0.93
			c-8.76-1.79-14.93-6.68-19.3-14.08c-3.81-6.44-7.33-13.06-10.88-19.65c-12.26-22.75-24.1-45.72-35.13-69.09
			c-12.47-26.41-23.8-53.29-33.24-80.96c-6.83-20.02-12.76-40.29-17.39-60.91c-2.58-11.47-4.83-23.03-6.4-34.71
			c-1.32-9.82-2.5-19.63-3.43-29.49c-0.63-6.73-0.39-13.48-1.12-20.15c-0.8-7.3-1.05-14.62-0.51-21.85
			c0.72-9.69,0.46-19.42,1.58-29.11c0.92-7.98,1.05-16.11,0.23-24.13c-0.88-8.53-4.8-15.66-11.51-21.15
			c-1.06-0.87-2.2-1.35-3.58-1.34C879.2,1409.91,877.52,1409.82,875.84,1409.78z"/>
		<path class="st3" d="M767.53,1605.43c-1.54,1.78-3.8,1.43-5.74,1.82c-7.93,1.59-15.89,2.22-24,1.04
			c-10.11-1.48-18.98-5.52-26.96-11.74c-7-5.46-12.84-12.03-18.27-18.99c-7.61-9.75-15.47-19.3-23.95-28.31
			c-10.82-11.5-22.48-22.03-35.62-30.84c-19.28-12.92-40.33-21.21-63.41-24.24c-18.27-2.4-36.63-2.74-54.98-1.75
			c-13.86,0.75-27.53,3.02-40.88,7c-28.21,8.41-51.14,24.45-69.09,47.71c-3.67,4.75-7.15,9.63-10.2,14.79
			c-5.84,9.88-14.11,17.41-23.12,24.25c-5.54,4.2-12.77,3.2-17.7-0.78c-3.31-2.67-4.04-5.66-2.09-9.44c1.11-2.15,2.56-4.13,3.98-6.1
			c9.46-13.02,16.39-27.24,20.4-42.84c2.15-8.36,3.54-16.84,4.09-25.46c1.02-15.76,0-31.42-2.04-47.06c-2.03-15.6-5-31.04-7.5-46.57
			c-1.1-6.83-2.18-13.68-3.58-20.46c-2.23-10.85-6.07-21.22-9.87-31.59c-3.54-9.67-6.97-19.36-9.98-29.21
			c-3.02-9.87-7.04-19.35-12.29-28.26c-12.84-21.77-31.41-35.8-56.17-41.43c-3.46-0.79-6.92-1.59-10.21-3.02
			c-8.15-3.54-13.26-9.65-15.28-18.21c-1.52-6.44-1.71-12.99-0.32-19.51c0.31-1.45,0.72-2.93,1.36-4.26
			c1.66-3.47,4.38-5.51,8.35-5.7c3.02-0.14,6.01,0.04,8.9,0.9c6.55,1.96,13.23,2.34,20.02,2.04c6.18-0.27,12.37-0.2,18.54-0.42
			c16.12-0.56,32.16-1.87,47.91-5.61c18.53-4.41,35.31-12.26,49.51-25.18c7.11-6.47,13.15-13.84,18.46-21.83
			c1.14-1.71,2.26-3.44,3.51-5.08c1.02-1.34,2.22-2.5,3.81-3.25c1.48-0.7,2.84-0.69,4.29,0.04c1.55,0.78,2.77,1.94,3.86,3.21
			c3.09,3.61,5.18,7.72,6.41,12.34c1.53,5.76,0.12,10.73-3.52,15.22c-1.66,2.05-3.62,3.81-5.81,5.27c-2.49,1.66-5.04,3.24-7.59,4.81
			c-9.15,5.59-17.66,11.98-25.21,19.63c-15.39,15.58-24.38,34.36-27.92,55.84c-2.39,14.49-2.55,29.05-1.37,43.68
			c1.61,19.8,4.2,39.47,7.92,58.97c5.01,26.29,18.03,48.15,37.71,66.16c11.96,10.95,25.43,19.73,39.62,27.46
			c10.69,5.83,21.72,10.97,32.87,15.83c13.8,6.01,28.21,7.12,42.96,5.17c12.12-1.6,23.75-5.19,35.36-8.82
			c9.29-2.9,18.5-6.07,28.06-7.99c5.69-1.14,11.41-1.89,17.29-1.07c7.29,1.02,13.61,3.93,19.2,8.61c3.46,2.9,6.56,6.15,9.38,9.67
			c27.12,33.88,57.51,64.65,89.25,94.15c9.47,8.8,19.1,17.43,28.63,26.16C765.6,1603.15,766.98,1603.9,767.53,1605.43z"/>
		<path class="st1" d="M386.95,909.06c0.39,0.23,0.65,0.31,0.66,0.41c0.39,4.28,0.82,8.57,1.11,12.86
			c1.12,16.81,3.1,33.53,5.42,50.22c4.42,31.72,11.02,63.01,18.71,94.07c2.25,9.09,1.63,17.77-1.06,26.52
			c-2.77,9.03-7.11,17.29-12.34,25.1c-7.68,11.45-16.91,21.46-27.97,29.72c-7.41,5.54-15.38,10.13-24.5,12.05
			c-6.03,1.27-12.2,2.06-18.34,2.5c-8.4,0.6-16.82,0.75-25.22-0.57c-4.26-0.67-8.61-0.45-12.9,0c-7.26,0.76-14.5,1.67-21.76,2.51
			c-4.68,0.54-9.32,0.44-13.98-0.4c-7.91-1.42-13.2-5.79-15.88-13.36c-2.13-6.01-3.74-12.17-4.93-18.42
			c-1.61-8.46-2.62-17.01-2.51-25.66c0.29-21.84,6.58-41.54,20.08-58.93c19.21-24.75,40.11-47.97,62.18-70.18
			c22.45-22.59,45.9-44.13,69.44-65.56C384.38,910.84,385.45,909.51,386.95,909.06z"/>
		<path class="st2" d="M1066.77,489.19c-0.25-19.39,1.9-38.48,6.99-57.22c1.67-6.15,3.75-12.16,6.32-17.99
			c10.45-23.73,28.51-38.44,53.45-44.92c8.73-2.27,17.62-3.37,26.65-3.61c15.81-0.42,31.38,1.39,46.85,4.52
			c20.6,4.17,40.77,9.7,60.1,18.05c1.03,0.45,2.06,0.91,3.12,1.28c1.73,0.61,2.72,1.84,3.32,3.53c1.56,4.43,2.69,8.97,3.53,13.57
			c2,10.99,1.64,22.01-0.22,32.97c-1.97,11.63-3.5,23.29-4.35,35.07c-0.8,11.05-0.96,22.08-0.49,33.11
			c0.48,11.21,1.4,22.39,2.73,33.55c2.13,17.85,5.48,35.49,8.77,53.14c2.2,11.8,3.15,23.73,2.82,35.76
			c-0.07,2.55-1.04,4.17-2.97,5.62c-7.52,5.65-15.57,10.39-24.13,14.27c-20.76,9.4-42.59,12.8-65.19,11.15
			c-14.24-1.04-28.17-4.01-41.57-9.01c-17.96-6.71-32.8-17.84-45.06-32.49c-14.3-17.08-23.71-36.73-30.22-57.86
			c-4.69-15.24-7.64-30.83-9.28-46.71C1067.04,506.39,1066.94,497.8,1066.77,489.19z M1244.63,466.67
			c-0.35-9.36-1.23-18.67-3.43-27.79c-2.26-9.34-5.6-18.29-11.27-26.13c-11.63-16.07-27.21-22.76-46.95-19.32
			c-8.6,1.5-16.51,4.76-24.03,9.06c-13.19,7.54-24.25,17.58-33.63,29.41c-22.52,28.41-36.19,60.46-39.49,96.79
			c-1.11,12.27-0.21,24.31,2.72,36.18c2.72,11,7.06,21.35,14.51,30.08c10.86,12.73,24.62,17.67,41.17,15.02
			c9.41-1.51,17.97-5.18,26-10.07c26.73-16.28,46.17-38.95,58.79-67.53c6.31-14.28,10.54-29.2,13.22-44.54
			C1243.46,480.84,1244.91,473.84,1244.63,466.67z"/>
		<path class="st3" d="M850.06,1031.17c-2.89-3.15-5.93-6.18-8.59-9.51c-1.41-1.76-2.89-3.42-4.37-5.1
			c-4.95-5.59-9.73-11.35-14.84-16.79c-4.86-5.18-9.64-10.47-15.27-14.87c-0.74-0.57-1.49-1.14-2.15-1.8
			c-7.87-7.82-16.91-14.15-26.18-20.13c-8.36-5.39-17.35-9.54-26.69-12.99c-10.71-3.96-21.7-7.01-32.85-9.34
			c-6.17-1.29-12.49-2.07-18.75-2.99c-8.79-1.29-17.55-0.73-26.32-0.99c-7.5-0.22-14.85,0.89-22.25,2.05
			c-16.86,2.64-32.46,8.7-47.3,16.82c-9.53,5.21-18.4,11.44-26.54,18.67c-2.51,2.23-5.11,4.37-7.66,6.56
			c-0.75,0.64-1.58,0.97-2.56,0.95c-1.89-1.96-2.37-4.61-3.22-7.02c-4.4-12.53-8.38-25.2-10.89-38.27
			c-0.84-4.39-1.72-8.8-1.77-13.33c-0.02-2.04-0.41-4.08-0.59-6.13c-0.11-1.3-0.29-2.62-0.19-3.92c0.86-11.41,2.39-22.65,7.19-33.24
			c2.96-6.53,6.71-12.52,10.96-18.24c3.58-4.83,7.67-9.23,12.15-13.21c10.76-9.57,17.82-21.6,23.37-34.63
			c4.55-10.67,8.88-21.43,13.32-32.15c0.36-0.86,0.71-1.74,1.2-2.51c0.46-0.72,1.27-0.88,1.88-0.23c3.1,3.25,6.19,6.52,9.2,9.85
			c5.4,5.97,10.67,12.05,16.13,17.96c7.37,7.98,14.93,15.78,22.28,23.77c11.67,12.68,23.72,25.01,36.21,36.88
			c17.8,16.89,36.19,33.08,56.98,46.34c13.95,8.91,28.66,16.18,44.21,21.84c16.74,6.09,33.97,10.33,51.45,13.6
			c11.38,2.12,22.79,4.08,34.22,6.12c0.45,1.62-0.66,2.81-1.36,4.07c-4.67,8.54-9.38,17.06-14.12,25.56
			c-6.38,11.44-12.79,22.87-19.21,34.29C854.86,1023.19,852.85,1027.41,850.06,1031.17z"/>
		<path class="st5" d="M1583.53,1615.61c-4.87,9.49-9.72,18.99-14.61,28.47c-3.86,7.49-7.53,15.06-10.9,22.79
			c-6.12,14.07-12.55,28-18.03,42.34c-0.51,1.33-1.14,2.16-2.72,2.32c-4.42,0.46-8.8,1.29-13.24,1.23
			c-0.35-1.95,0.66-3.19,1.23-4.52c34.03-79.88,68.08-159.75,102.14-239.62c36.63-85.89,73.26-171.78,109.89-257.67
			c1.54-3.62,3.06-7.24,3.66-11.17c0.19-1.21,0.81-2.12,2.18-2.12c5.79-0.02,11.58-0.01,17.16-0.01c0.87,1.43,0.39,2.49,0.1,3.55
			c-1.98,7.23-4.41,14.31-7.44,21.16c-4.39,9.94-8.27,20.06-11.76,30.35c-2.83,8.33-6.39,16.38-9.79,24.49
			c-1.23,2.93-2.4,5.89-3.56,8.85c-0.31,0.8-0.98,1.97,0.13,2.36c0.97,0.34,1.49-0.91,1.91-1.71c1.14-2.15,2.27-4.3,3.31-6.5
			c5.34-11.35,11.03-22.52,17.29-33.4c7.22-12.55,12.55-25.92,16.46-39.85c0.2-0.72,0.43-1.43,0.61-2.16
			c0.58-2.31,0.3-5.22,2.18-6.69c1.71-1.33,4.35-0.44,6.58-0.46c4.87-0.06,9.74-0.03,14.61-0.01c1.07,0,2.13,0.11,3.03,0.17
			c0.48,1.11,0.03,1.77-0.31,2.41c-4.16,7.99-7.3,16.4-10.39,24.84c-7.83,21.45-16.29,42.65-24.99,63.75
			c-4.56,11.07-8.75,22.29-13.02,33.48c-6.69,17.51-14.92,34.31-23.16,51.12c-1.73,3.53-3.47,7.05-5.19,10.59
			c-0.41,0.84-0.8,1.69-1.1,2.57c-0.42,1.23,0.22,1.75,2.31,1.98c-0.76,1.46-1.96,2.57-2.64,4.19
			c-5.92,14.13-12.06,28.16-18.06,42.25c-6,14.09-11.9,28.22-17.85,42.33c-6.89,16.35-13.76,32.71-20.68,49.04
			c-3.72,8.77-7.56,17.49-11.27,26.27c-3.49,8.25-6.84,16.57-10.34,24.82c-4.74,11.18-9.61,22.3-14.33,33.49
			c-5.37,12.73-10.61,25.52-15.96,38.26c-4.98,11.88-10,23.75-15.04,35.61c-1.76,4.13-3.5,8.27-5.5,12.28
			c-1.39,2.79-3.22,5.36-4.92,8.14c1.14,0.27,2.03,0.48,2.93,0.7c-3.56,1.65-7.33,0.53-10.79,1.36c-0.8-1.98,0.27-3.02,0.8-4.14
			c20.05-42.29,38.67-85.19,55.31-128.94c5.65-14.86,11.17-29.78,15.73-45.03c0.58-1.95,1.06-3.92,1.63-6.06
			c-1.5,0.55-1.85,1.65-2.31,2.67c-2.22,4.95-4.54,9.86-6.67,14.85c-15.72,36.83-30.78,73.94-47.02,110.54
			c-8.04,18.13-16.13,36.24-24.17,54.37c-0.63,1.42-1.21,2.68-3.02,2.9c-5.74,0.72-11.47,1.45-17.52,1.99
			c0.43-2.93,1.73-4.99,2.72-7.15c8.01-17.53,16.31-34.93,23.15-52.97c4.25-11.19,8.41-22.42,12.61-33.63
			c1.46-2.09,2.05-4.46,2.71-7.62C1585.08,1611.19,1584.31,1613.4,1583.53,1615.61z"/>
		<path class="st1" d="M332.47,1466.45c-0.87,5.68,0.3,13.61,1.52,21.58c1.8,11.76-0.23,23.13-4.18,34.21
			c-3.29,9.24-8.15,17.66-13.8,25.65c-4.55,6.44-9.53,12.52-14.87,18.32c-2.67,2.91-5.57,5.58-8.99,7.59
			c-1.45,0.85-2.97,1.63-4.55,2.2c-6.58,2.38-12.27,0.59-16.3-5.1c-0.86-1.22-1.61-2.54-2.23-3.89
			c-9.97-21.79-20.36-43.39-29.33-65.63c-7.36-18.25-13.76-36.82-17.86-56.11c-3.13-14.7-4.96-29.56-4.78-44.59
			c0.27-21.94,4.48-43.15,12.72-63.51c2.04-5.05,3.73-10.19,5.02-15.47c0.93-3.82,2.01-7.6,3.62-11.21
			c3.61-8.1,9.86-12.12,18.71-11.55c18.24,1.17,32.08,9.34,40.42,25.98c0.75,1.5,1.45,3.05,2,4.64
			c6.57,18.92,13.69,37.64,19.68,56.77c4.53,14.49,8.39,29.15,10.72,44.16C331.7,1441.59,332.84,1452.77,332.47,1466.45z"/>
		<path class="st3" d="M1093.74,1702.58c0.13-11.61,2.5-22.68,8.13-32.9c7.35-13.35,18.4-22,33.35-25.33
			c10.89-2.43,21.59-1.1,32.09,2.35c5.35,1.76,10.41,4.16,15.34,6.89c15.91,8.8,29.57,20.35,41.63,33.86
			c9.75,10.92,18.36,22.72,26.15,35.09c6.19,9.82,12.09,19.81,18.08,29.75c0.96,1.6,1.88,3.26,2.5,5.01
			c2.84,8.01-0.18,11.93-5.04,14.86c-3.23,1.95-6.77,3.17-10.31,4.38c-19.83,6.74-39.68,13.43-59.5,20.21
			c-14.69,5.02-29.35,10.12-44.01,15.23c-2.66,0.93-5.33,1.72-8.1,2.24c-6.28,1.17-11.43-0.87-15.65-5.47
			c-2.04-2.22-3.66-4.75-5.02-7.43c-12.63-24.81-22.34-50.63-27.26-78.13C1094.88,1716.36,1093.6,1709.56,1093.74,1702.58z"/>
		<path class="st1" d="M421.42,1299.32c0-5.62,0.11-11.24-0.02-16.85c-0.46-20.28,7.96-36.17,23.79-48.42
			c5.96-4.61,12.55-8.16,19.65-10.7c1.23-0.44,2.48-0.87,3.76-1.09c4.06-0.7,7.37,0.61,9.84,3.94c1.58,2.12,2.76,4.47,3.68,6.92
			c1.25,3.33,2.4,6.69,3.51,10.07c1.58,4.83,3.81,9.3,6.52,13.63c18.08,28.88,36.05,57.84,54.05,86.77
			c10.19,16.38,20.53,32.66,31.19,48.73c2.07,3.12,4.01,6.32,5.91,9.55c1.33,2.26,2.29,4.71,2.99,7.25c1.09,4-0.01,7.38-2.84,10.29
			c-1.72,1.77-3.76,3.09-5.94,4.2c-10.44,5.32-21.49,8.65-33.11,10.11c-45.13,5.67-90.96-20.23-111.44-65.3
			c-7.45-16.4-11.25-33.67-11.53-51.69c-0.09-5.8-0.01-11.61-0.01-17.41C421.41,1299.32,421.42,1299.32,421.42,1299.32z"/>
		<path class="st6" d="M1456.05,1585.9c-1.46-0.12-1.74-0.86-2.06-1.51c-3.44-7.07-6.82-14.17-10.31-21.22
			c-1.12-2.26-1.6-4.48-1.17-7.02c1.04-6.09,1.84-12.21,2.8-18.31c1.72-10.9,3.48-21.8,5.21-32.7c2.14-13.49,4.28-26.98,6.4-40.47
			c2.03-12.94,4.01-25.89,6.05-38.82c2.45-15.52,4.94-31.04,7.39-46.57c2.04-12.94,4.03-25.88,6.07-38.82
			c2.45-15.52,4.93-31.04,7.37-46.57c1.69-10.72,3.33-21.45,5.02-32.17c2.45-15.52,4.93-31.04,7.38-46.57
			c2.04-12.94,4.05-25.88,6.08-38.82c0.96-6.1,1.94-12.19,2.91-18.29c0.88-5.61,1.04-11.2-0.71-16.68
			c-3.95-12.39-12.1-20.6-24.81-23.61c-13.83-3.28-27.78-6.05-41.67-9.05c-32.55-7.02-65.09-14.07-97.64-21.07
			c-38.77-8.33-77.55-16.61-116.32-24.94c-30.91-6.64-61.8-13.32-92.71-19.98c-15.73-3.39-31.42-6.94-47.2-10.06
			c-9.17-1.81-18.45-3-27.78-3.96c-8.98-0.92-17.94-1.06-26.94-0.92c-5.64,0.09-11.19,0.98-16.65,2.34
			c-4.2,1.05-8.14,2.72-11.71,5.27c-8.22,5.87-8.98,15.5-5.79,22.52c0.83,1.82,1.88,3.54,2.93,5.49c-0.84,0.08-1.42,0.28-1.92,0.15
			c-13.6-3.57-25.19-10.4-34.36-21.16c-1.83-2.14-3.47-4.44-4.52-7.07c-1.53-3.86-0.86-6.79,2.13-9.69c2.62-2.54,5.87-4,9.21-5.24
			c5.11-1.9,10.44-2.99,15.81-3.73c16-2.21,32.11-2.65,48.22-1.98c11.41,0.47,22.83,1.09,34.2,2.14
			c23.12,2.12,46.05,5.48,68.77,10.43c20.83,4.54,41.77,8.62,62.66,12.9c19.24,3.95,38.47,7.91,57.71,11.86
			c21.07,4.32,42.15,8.62,63.22,12.94c18.88,3.87,37.75,7.73,56.62,11.62c19.24,3.96,38.47,7.94,57.71,11.9
			c19.42,3.99,38.85,7.96,58.27,11.93c6.41,1.31,12.83,2.61,19.25,3.92c1.28,0.26,2.54,0.65,3.83,0.89
			c9.44,1.71,16.89,11.41,15.14,22.3c-1.55,9.61-3.1,19.21-4.65,28.82c-2.15,13.3-4.29,26.6-6.46,39.89
			c-2.08,12.74-4.22,25.47-6.27,38.22c-2.08,12.93-4.07,25.88-6.15,38.81c-1.63,10.16-3.36,20.31-5.01,30.46
			c-2.04,12.56-4.04,25.12-6.07,37.68c-2.09,12.93-4.2,25.85-6.28,38.78c-2.08,12.93-4.12,25.87-6.2,38.8
			c-1.63,10.16-3.32,20.31-4.96,30.47c-2.11,13.11-4.2,26.23-6.31,39.35c-1.6,9.98-3.24,19.95-4.85,29.92
			c-2.15,13.3-4.27,26.6-6.42,39.9C1459.08,1567.64,1457.57,1576.68,1456.05,1585.9z"/>
		<path class="st5" d="M1421.87,1517.6c-3.25-6.52-6.56-13.02-9.75-19.58c-8.77-18.01-17.43-36.06-26.27-54.03
			c-1.4-2.84-1.81-5.54-1.37-8.63c1.8-12.6,3.49-25.22,5.13-37.84c0.41-3.15,0.5-6.35,0.71-9.53c0.05-0.71,0.11-1.48-0.81-2.02
			c-1.42,1.06-1.5,2.83-1.8,4.37c-1.23,6.43-2.35,12.89-3.47,19.34c-1.21,7.01-2.36,14.02-3.53,21c-1.35,0.11-1.67-0.82-2.06-1.63
			c-1.8-3.71-4.25-7.26-5.18-11.17c-0.93-3.94,0.83-8.08,1.48-12.13c3.88-24.4,7.73-48.8,11.64-73.2
			c3.56-22.18,7.21-44.34,10.76-66.51c3.2-19.96,6.33-39.93,9.5-59.89c1.12-7.02,2.16-14.06,3.42-21.06c0.67-3.71,1-7.41,0.86-11.17
			c-0.09-2.47,0.07-2.69,2.09-3.29c7.52-2.27,15.05-4.51,22.6-6.72c1.81-0.53,2.55-0.09,2.72,1.62c0.22,2.23,0.48,4.5,0.31,6.71
			c-0.66,8.4-1.43,16.79-2.27,25.18c-0.89,8.94-1.9,17.87-2.86,26.81c-0.97,8.93-2,17.86-2.9,26.8c-0.96,9.5-2.01,19-2.65,28.52
			c-0.68,10.1-1.92,20.13-2.88,30.19c-0.34,3.54-0.58,7.09-0.78,10.64c-0.03,0.59-0.26,1.65,0.95,1.56
			c0.92-0.07,1.11-0.92,1.23-1.61c1.13-6.45,2.23-12.91,3.3-19.37c1.8-10.89,3.69-21.78,5.32-32.69c1.49-10,2.82-20.02,3.98-30.06
			c1.5-13.02,2.83-26.06,4.1-39.1c0.69-7.08,1.24-14.18,1.6-21.28c0.23-4.66,0.27-9.37-0.94-13.97c-0.31-1.17-0.21-2.28,1.19-2.71
			c6.04-1.89,12.09-3.76,18.04-5.32c1.21,1.49,0.83,2.84,0.83,4.11c-0.04,8.07-0.93,16.08-1.74,24.09
			c-1.63,16.2-3.96,32.33-5.31,48.57c-1,12.12-2.61,24.2-3.91,36.29c-0.22,2.03-0.27,4.09-0.4,6.24c1.23-0.12,0.98-0.95,1.1-1.48
			c2.66-12.63,5.25-25.28,7.97-37.9c1.93-8.96,4.22-17.85,6.02-26.84c2.14-10.66,3.14-21.48,3.8-32.33
			c0.43-6.95-0.26-13.85-1.36-20.7c-0.22-1.38,0.17-2.2,1.41-2.59c1.94-0.61,3.91-1.12,5.87-1.68c-1.11,1.45-1.33,3.03-0.81,4.77
			c1.27,4.23,1.17,8.46,0.03,12.7c-0.19,0.72-0.21,1.48-0.31,2.22c-0.88,6.27-1.68,12.55-2.65,18.8
			c-1.31,8.46-2.79,16.89-4.13,25.34c-0.9,5.7-1.63,11.43-2.53,17.13c-1.38,8.82-2.83,17.63-4.28,26.44
			c-1,6.06-2.06,12.1-3.06,18.16c-0.85,5.14-1.69,10.29-2.45,15.45c-0.92,6.26-1.68,12.55-2.64,18.8
			c-1.33,8.64-2.81,17.26-4.18,25.9c-0.91,5.7-1.73,11.41-2.64,17.11c-1.35,8.45-2.76,16.89-4.09,25.35
			c-0.9,5.7-1.67,11.42-2.57,17.12c-1.37,8.64-2.82,17.26-4.19,25.89c-0.87,5.52-1.61,11.05-2.49,16.57
			c-0.97,6.06-2.08,12.1-3.07,18.16c-1.09,6.61-2.12,13.22-3.18,19.84c-0.8,4.96-1.81,9.9-2.37,14.89
			C1424.97,1500.76,1423.31,1509.16,1421.87,1517.6z"/>
		<path class="st3" d="M1434.88,1639.99c0.22,4.2-1.25,8-3.7,11.44c-6.31,8.85-12.62,17.69-19.02,26.47
			c-3.98,5.46-8.35,10.6-13.46,15.06c-4.87,4.25-10.31,7.38-16.7,8.84c-7.74,1.76-14.03-0.35-18.98-6.54
			c-2.95-3.69-5.23-7.79-6.94-12.15c-2.33-5.92-4.43-11.93-6.64-17.9c-2.01-5.44-3.88-10.94-6.08-16.31
			c-6.93-16.92-11.36-34.46-13.29-52.64c-0.65-6.14-1.17-12.3-1.68-18.46c-0.11-1.29-0.06-2.64,0.21-3.9
			c1.83-8.41,3.51-16.87,6.23-25.06c2.64-7.93,6.42-15.15,12.69-20.9c5.69-5.23,12.33-8.44,19.93-9.63
			c7.44-1.17,12.68,1.49,16.19,8.27c1.12,2.15,2.04,4.43,2.81,6.73c1.73,5.17,3.99,10.07,6.49,14.91
			c11.5,22.31,22.05,45.08,32.93,67.69c2.03,4.22,4.18,8.38,6.13,12.64C1433.63,1632.13,1434.98,1635.83,1434.88,1639.99z"/>
		<path class="st7" d="M1386.47,962.55c-5.06-2.25-8.99-6-12.65-9.96c-7.44-8.06-13.19-17.14-15.96-27.9
			c-0.62-2.39-0.91-4.75-0.17-7.15c0.92-0.15,1.83-0.32,2.75-0.45c3.86-0.57,7.73-1.64,11.58-1.55c3.87,0.09,7.83,0.55,11.65,1.19
			c9.55,1.59,19,3.84,28.2,6.91c11.87,3.97,23.48,8.61,35.07,13.37c10.04,4.13,19.64,9.16,29.64,13.36
			c4.64,1.95,8.89,4.79,13.39,7.05c13.06,6.55,25.25,14.55,37.71,22.09c9.26,5.61,18.5,11.27,27.75,16.9
			c9.89,6.01,19.8,12.01,29.69,18.02c9.26,5.62,18.5,11.27,27.76,16.88c11.66,7.07,23.33,14.11,34.99,21.17
			c7.99,4.84,15.96,9.7,23.95,14.53c6.23,3.77,12.5,7.48,18.71,11.28c10.51,6.43,20.97,12.95,31.49,19.37
			c11.64,7.1,23.33,14.11,34.98,21.19c7.5,4.55,14.97,9.16,22.47,13.72c11.65,7.08,23.32,14.13,34.97,21.2
			c7.66,4.65,15.29,9.36,22.98,13.97c7.1,4.25,11.03,10.85,12.17,18.62c0.96,6.58,0.91,13.45-2.05,19.84
			c-1.26,2.71-2.21,5.55-3.4,8.29c-3.93,9.09-7.97,18.12-11.84,27.23c-4.6,10.82-9,21.73-13.59,32.56
			c-4.74,11.18-9.64,22.28-14.38,33.46c-5.83,13.75-11.58,27.53-17.36,41.31c-2.82,6.71-5.59,13.44-8.44,20.15
			c-2.48,5.85-5.06,11.65-7.53,17.5c-2.7,6.36-5.31,12.75-8,19.11c-2.48,5.85-5.04,11.66-7.53,17.5
			c-2.71,6.35-5.38,12.73-8.07,19.09c-2.47,5.85-4.96,11.69-7.44,17.53c-2.77,6.53-5.55,13.06-8.32,19.59
			c-4.59,10.83-9.18,21.66-13.77,32.49c-2.48,5.84-4.97,11.68-7.45,17.53c-2.77,6.53-5.54,13.06-8.31,19.6
			c-3.64,8.6-7.28,17.19-10.92,25.79c-2.47,5.85-4.92,11.7-7.41,17.54c-2.71,6.36-5.48,12.69-8.19,19.04
			c-2.63,6.18-5.2,12.4-7.82,18.58c-2.63,6.19-5.3,12.36-7.93,18.54c-2.63,6.19-5.2,12.39-7.82,18.58
			c-2.63,6.19-5.3,12.36-7.93,18.55c-3.72,8.76-7.49,17.51-11.08,26.32c-1.39,3.42-3.47,6.64-3.62,10.51
			c-4.67,2.55-9.36,2.15-13.97-0.09c-2.67-1.3-5.22-2.85-7.72-4.24c0.37-1.73,1.66-1.82,2.55-2.26c7.76-3.83,13.01-9.94,16.36-17.8
			c6.16-14.47,12.32-28.94,18.46-43.42c8.76-20.69,17.5-41.38,26.24-62.07c9.69-22.93,19.37-45.87,29.08-68.8
			c8.83-20.86,17.7-41.71,26.53-62.56c7.38-17.41,14.74-34.83,22.11-52.24c8.1-19.14,16.2-38.27,24.3-57.41
			c16.49-38.96,32.98-77.93,49.47-116.89c3.43-8.1,6.88-16.2,10.3-24.3c4.8-11.35,4.56-22.58-0.86-33.66
			c-2.96-6.05-7.35-10.8-13.13-14.26c-24.58-14.72-49.16-29.44-73.75-44.16c-30.05-17.99-60.1-35.97-90.15-53.96
			c-30.85-18.47-61.71-36.93-92.56-55.4c-28.12-16.83-56.22-33.7-84.37-50.49c-13.87-8.27-28.45-15.1-43.67-20.48
			c-9.38-3.31-19.02-5.64-29.15-4.89c-3.24,0.24-6.28,0.99-9.18,2.37c-7.74,3.69-11.93,11.96-10.43,20.45
			c0.39,2.18,1.22,4.33,0.55,6.61L1386.47,962.55z"/>
		<path class="st8" d="M1584.46,1705.93c-0.9-0.21-1.79-0.43-2.93-0.7c1.7-2.78,3.53-5.36,4.92-8.14c2-4.01,3.74-8.15,5.5-12.28
			c5.04-11.86,10.06-23.73,15.04-35.61c5.34-12.74,10.58-25.53,15.96-38.26c4.72-11.19,9.59-22.31,14.33-33.49
			c3.5-8.25,6.85-16.57,10.34-24.82c3.71-8.77,7.55-17.49,11.27-26.27c6.92-16.34,13.79-32.7,20.68-49.04
			c5.95-14.11,11.85-28.24,17.85-42.33c6-14.09,12.14-28.13,18.06-42.25c0.68-1.62,1.88-2.72,2.64-4.19
			c11.4-21.07,21.53-42.78,32.75-63.94c14.68-27.69,26.17-56.7,36.96-86.04c1.29-3.51,2.56-7.03,3.85-10.54
			c3.35-9.15,6.35-18.39,7.71-28.09c0.26-1.87,0.68-2.26,2.53-2.27c6.36-0.04,12.71-0.02,19.25-0.02c0.3,3.22-1.07,5.7-2.12,8.2
			c-6.46,15.35-12.99,30.66-19.48,45.99c-61.6,145.57-123.2,291.14-184.81,436.7c-0.8,1.89-1.51,3.84-2.49,5.64
			c-3.35,6.14-8.31,9.98-15.51,10.55C1592.65,1705.06,1588.56,1705.52,1584.46,1705.93z"/>
		<path class="st7" d="M1371.86,971.36c-0.1,2.6-0.18,5.16-0.75,7.77c-0.63,2.87-0.29,5.95-0.43,8.93
			c-0.29,6.02,0.69,11.84,2.11,17.69c2.15,8.88,6.31,16.72,11.69,23.96c11.01,14.84,25.99,23.16,44.03,26.25
			c6.96,1.19,13.97,2.04,20.89,3.42c6.02,1.2,12.11,1.96,18.15,2.91c5.86,0.92,11.74,1.89,17.63,2.7
			c8.27,1.14,16.48,2.77,24.73,4.12c3.48,0.57,7.03,0.81,10.5,1.44c4.74,0.86,9.53,1.36,14.16,3.02
			c15.9,5.71,25.1,17.09,28.18,33.34c0.95,5.03,0.79,10.41-0.35,15.61c-0.84,3.81-0.78,7.75-1.53,11.6
			c-0.99,5.09-1.47,10.3-2.04,15.45c-0.45,4.06-1.74,8.03-1.47,12.19c0.17,2.62-0.8,5.15-1.24,7.69c-0.76,4.4-0.79,8.87-1.72,13.26
			c-0.76,3.6-0.75,7.38-1.44,11.05c-0.95,5.11-1.09,10.33-2.1,15.45c-0.46,2.34-0.13,4.85-0.16,7.28
			c-5.12-3.1-10.19-6.28-15.37-9.26c-2.37-1.36-2.76-3.14-2.35-5.64c2.61-15.68,5.11-31.37,7.67-47.06
			c1.33-8.12,2.8-16.21,4.05-24.35c2.96-19.38-9-35.56-26.25-39.37c-14.42-3.18-28.92-6.03-43.39-9
			c-15.57-3.2-31.14-6.36-46.71-9.54c-19.6-4-39.2-7.99-58.79-12.02c-17.03-3.51-34.05-7.08-51.07-10.61
			c-4.76-0.99-9.54-1.89-14.3-2.86c-1.48-0.3-1.8-0.92-1.16-2.42c3.58-8.45,7.19-16.88,10.79-25.31
			c9.25-21.7,18.5-43.39,27.75-65.09c1.4-3.27,2.8-6.54,4.19-9.81c0.44-1.02,0.78-2.11,2.05-2.75c0.44,0.54,1.01,1.05,1.33,1.68
			c5.15,10.19,12.36,18.71,20.89,26.2C1370.71,969.9,1371.25,970.67,1371.86,971.36z"/>
		<path class="st2" d="M1139.67,343.79c-3.18,0.72-6.42,1.38-9.63,2.18c-13.05,3.28-26.1,6.58-39.14,9.93
			c-8.71,2.23-17.52,3.98-26.45,4.87c-15.95,1.59-30.92-1.47-44.51-10.26c-7.01-4.53-12.63-10.5-17.51-17.22
			c-6.4-8.81-11.46-18.42-16.62-27.96c-6.5-12.02-13.19-23.92-21.1-35.09c-1.3-1.83-2.63-3.64-3.89-5.5
			c-0.61-0.9-0.22-1.94,0.85-2.1c3.51-0.54,7.02-1.11,10.55-1.47c10.62-1.09,21.27-1.62,31.95-1.16
			c37.94,1.66,71.66,13.92,100.15,39.58c13.89,12.51,25.22,27.07,35.15,42.8C1139.66,342.67,1139.58,343.1,1139.67,343.79z"/>
		<path class="st6" d="M1629.38,1722.58c0.15-3.86,2.22-7.08,3.62-10.51c3.59-8.82,7.36-17.56,11.08-26.32
			c2.63-6.19,5.3-12.36,7.93-18.55c2.62-6.19,5.2-12.39,7.82-18.58c2.63-6.19,5.3-12.36,7.93-18.54c2.62-6.19,5.19-12.4,7.82-18.58
			c2.71-6.36,5.48-12.69,8.19-19.04c2.49-5.84,4.94-11.7,7.41-17.54c3.64-8.6,7.28-17.19,10.92-25.79
			c2.77-6.53,5.54-13.07,8.31-19.6c2.48-5.84,4.97-11.68,7.45-17.53c4.59-10.83,9.18-21.66,13.77-32.49
			c2.77-6.53,5.54-13.06,8.32-19.59c2.48-5.84,4.96-11.69,7.44-17.53c2.69-6.36,5.36-12.73,8.07-19.09
			c2.49-5.84,5.05-11.65,7.53-17.5c2.7-6.36,5.3-12.75,8-19.11c2.48-5.85,5.06-11.65,7.53-17.5c2.84-6.7,5.62-13.43,8.44-20.15
			c5.78-13.77,11.52-27.56,17.36-41.31c4.74-11.17,9.65-22.28,14.38-33.46c4.59-10.83,9-21.73,13.59-32.56
			c3.87-9.11,7.91-18.15,11.84-27.23c1.19-2.74,2.14-5.58,3.4-8.29c2.96-6.39,3.01-13.27,2.05-19.84
			c-1.13-7.76-5.07-14.37-12.17-18.62c-7.69-4.6-15.31-9.32-22.98-13.97c-11.65-7.07-23.32-14.12-34.97-21.2
			c-7.5-4.56-14.97-9.17-22.47-13.72c-11.65-7.07-23.34-14.09-34.98-21.19c-10.52-6.42-20.98-12.94-31.49-19.37
			c-6.21-3.8-12.48-7.51-18.71-11.28c-7.99-4.83-15.96-9.7-23.95-14.53c-11.66-7.06-23.33-14.1-34.99-21.17
			c-9.26-5.61-18.5-11.26-27.76-16.88c-9.9-6.01-19.8-12-29.69-18.02c-9.25-5.63-18.49-11.29-27.75-16.9
			c-12.46-7.55-24.65-15.54-37.71-22.09c-4.5-2.26-8.75-5.1-13.39-7.05c-9.99-4.2-19.6-9.24-29.64-13.36
			c-11.58-4.76-23.19-9.4-35.07-13.37c-9.2-3.08-18.65-5.33-28.2-6.91c-3.82-0.63-7.78-1.09-11.65-1.19
			c-3.85-0.09-7.72,0.98-11.58,1.55c-0.92,0.14-1.83,0.3-2.75,0.45c0.49-4.13,3.41-6.1,6.89-7.35c2.81-1.01,5.77-1.5,8.8-1.58
			c9.65-0.24,19,1.62,28.27,3.92c16.93,4.19,33.27,10.16,49.4,16.7c18.92,7.67,37.49,16.15,55.33,26.09
			c13.41,7.47,26.57,15.39,39.82,23.14c39.59,23.17,79.17,46.35,118.76,69.54c49.12,28.77,98.23,57.54,147.34,86.31
			c13.73,8.04,27.33,16.34,41.28,23.98c10.77,5.9,14.36,19.59,10,29.6c-6.8,15.62-13.41,31.32-20.1,46.98
			c-18.23,42.69-36.45,85.39-54.69,128.07c-15.97,37.35-31.98,74.67-47.95,112.02c-14.86,34.77-29.68,69.55-44.54,104.32
			c-13.61,31.84-27.25,63.67-40.87,95.5c-5.15,12.05-10.28,24.1-15.42,36.16C1637.83,1716.06,1634.91,1720.5,1629.38,1722.58z"/>
		<path class="st1" d="M651.68,1604.08c-1.35,1.4-2.91,1.3-4.38,1.4c-21.7,1.55-43.41,1.93-65.13,0.68
			c-9.16-0.52-18.33-0.95-27.48-1.62c-11.76-0.86-23.51-1.92-35.27-2.91c-5.22-0.44-10.44-0.97-15.67-1.37
			c-17.93-1.35-35.85-2.74-53.82-3.43c-2.85-0.11-5.59-0.64-8.15-1.86c-4.49-2.14-6.13-5.83-4.89-10.64
			c0.71-2.78,2.07-5.22,3.81-7.45c5.87-7.55,12.02-14.85,19.11-21.3c8.77-7.98,18.79-13.66,30.56-15.68
			c5.33-0.91,10.8-1.31,16.21-1.41c11.05-0.22,22.11-0.41,33.15-0.02c15.94,0.56,31.69,2.51,46.99,7.42
			c21.78,6.99,39.32,19.76,52.83,38.13C644.22,1590.36,648.37,1597.01,651.68,1604.08z"/>
		<path class="st9" d="M1793.64,1182.63c-1.49,0.09-2.98,0.27-4.47,0.27c-14.62,0.02-29.24,0.01-43.86,0.01
			c-0.94,0-1.88-0.04-2.81-0.01c-1.56,0.06-2.44-0.71-2.81-2.17c-0.09-0.36-0.2-0.73-0.33-1.08c-3.21-8.58-8.75-15.07-16.75-19.66
			c-15.75-9.05-31.36-18.33-47.04-27.51c-79.03-46.26-158.07-92.51-237.1-138.78c-11.6-6.79-21.5-15.6-30.25-25.74
			c-2.7-3.13-5.05-6.52-6.7-10.34c-2.37-5.5-1.57-9.42,5.84-9.7c0.55-0.02,1.11,0.11,1.66,0.17c0.76,0.53,1.46,1.18,2.29,1.56
			c3.39,1.58,6.84,3,10.21,4.62c8.27,3.96,16.34,8.26,24.16,13.07c8.91,5.48,18.02,10.62,27.02,15.97
			c7.06,4.2,14.08,8.48,21.12,12.72c10.24,6.17,20.48,12.34,30.73,18.49c12.01,7.21,24.04,14.39,36.06,21.59
			c12.34,7.39,24.66,14.8,37,22.2c12.02,7.2,24.02,14.42,36.06,21.59c8.99,5.35,18.05,10.58,27.03,15.95
			c12.18,7.29,24.3,14.69,36.47,21.98c14.1,8.45,28.25,16.82,42.35,25.27c14.1,8.45,28.12,17.04,42.27,25.39
			c4.83,2.85,8.41,6.76,11.26,11.44C1793.5,1180.69,1793.46,1181.73,1793.64,1182.63z"/>
		<path class="st9" d="M1466.32,1139.21c-5.69,1.78-11.37,3.61-17.08,5.32c-12.54,3.77-25.11,7.48-37.66,11.22
			c-1.44,0.43-2.87,0.87-4.32,1.24c-1.16,0.3-2.2,0.16-2.99-0.91c-0.56-0.75-1.16-1.47-1.8-2.16c-4.81-5.27-10.63-8.89-17.62-10.38
			c-12.63-2.69-25.29-5.24-37.94-7.85c-30.25-6.24-60.49-12.49-90.74-18.7c-26.4-5.42-52.82-10.77-79.22-16.19
			c-28.42-5.83-56.83-11.72-85.24-17.58c-13.02-2.68-26.08-5.17-39.04-8.08c-11.76-2.64-22.8-7.27-33.18-13.41
			c-1.93-1.14-3.76-2.46-5.55-3.82c-1.18-0.9-2.29-1.95-3.27-3.07c-3.75-4.31-3.09-6.66,2.45-9.01c0.51,0.59,1.15,0.97,1.94,0.97
			c6.92-0.03,13.8,0.43,20.7,1.06c4.47,0.41,8.94,0.94,13.32,1.64c6.98,1.11,13.96,2.29,20.87,3.94c12.33,2.95,24.78,5.38,37.18,8
			c9.67,2.04,19.36,3.97,29.02,6.06c12.76,2.77,25.48,5.71,38.23,8.47c15.13,3.27,30.29,6.39,45.42,9.63
			c9.3,1.99,18.56,4.15,27.86,6.14c14.4,3.08,28.83,6.07,43.24,9.13c10.58,2.24,21.16,4.5,31.73,6.79
			c6.56,1.42,13.1,2.96,19.66,4.36c11.67,2.49,23.37,4.86,35.03,7.38c12.58,2.71,25.12,5.57,37.7,8.3
			c16.39,3.56,33.01,6.14,49.06,11.18C1464.81,1139.1,1465.58,1139.1,1466.32,1139.21z"/>
		<path class="st3" d="M1705.06,858.75c-0.15,8.36-2.09,16.35-4.93,24.12c-4.89,13.36-12.09,25.31-22.31,35.33
			c-3.63,3.56-7.65,6.59-12.18,8.95c-6.1,3.18-12.43,3.77-19.07,2.09c-4.77-1.21-9.22-3.14-13.38-5.69
			c-15.63-9.56-27.25-22.69-34.72-39.44c-4.95-11.1-5.25-22.48-1.65-34c3.25-10.42,10.04-17.29,20.58-20.45
			c6.52-1.96,13.22-2.54,19.95-2.96c5.98-0.38,11.98-0.3,17.95-1c3.92-0.46,7.78-1.07,11.61-1.99c3.66-0.88,7.38-1.18,11.15-0.92
			c7.13,0.49,13.02,3.54,17.46,9.02C1701.84,839.62,1705.12,848.63,1705.06,858.75z"/>
		<path class="st7" d="M1524.78,1403.37c-0.02,2.61-0.35,5.16-0.78,7.76c-0.6,3.65-0.75,7.4-1.46,11.06
			c-0.95,4.93-0.98,9.97-2,14.92c-0.82,3.99-1.07,8.12-1.37,12.2c-0.22,2.98-0.8,5.96-1.38,8.81c-0.86,4.22-0.65,8.52-1.71,12.72
			c-0.99,3.93-0.94,8.12-1.47,12.18c-0.57,4.42-1.33,8.82-1.91,13.23c-0.54,4.06-1.14,8.12-1.38,12.2
			c-0.19,3.18-0.83,6.33-1.42,9.37c-0.83,4.22-0.63,8.52-1.71,12.72c-1,3.93-0.99,8.11-1.44,12.18c-0.37,3.33-0.75,6.72-1.46,9.93
			c-0.81,3.66-0.68,7.39-1.64,11.05c-0.79,2.98-1,6.27-1.16,9.38c-0.21,4.13-0.89,8.2-1.59,12.18c-0.75,4.22-0.61,8.52-1.7,12.72
			c-1.01,3.92-0.97,8.11-1.45,12.18c-0.42,3.51-0.91,7.01-1.4,10.51c-0.63,4.41-1.52,8.8-1.87,13.24c-0.31,3.91-1,7.78-1.52,11.62
			c-0.55,4.11-1.04,8.19-0.73,12.25c0.78,10.25,2.27,20.38,7.06,29.7c1.54,3,3.12,5.98,4.52,9.04c1.12,2.44,3.08,4.21,4.6,6.33
			c0.61,0.84,1.71,0.57,2.63,0.59c-1.69,3.94-3.23,7.96-5.09,11.82c-2.29,4.75-6.03,7.95-11.08,9.71c-4.83,1.68-9.24,0.7-13.45-1.73
			c-6.81-3.92-13.55-7.95-20.33-11.94c-3.39-1.99-6.8-3.93-10.16-5.98c-1.95-1.19-2.13-2.01-0.67-3.49
			c7.55-7.68,13.24-16.68,18.68-25.87c4.28-7.23,9.76-13.23,17.49-16.91c0.17-0.08,0.33-0.17,0.5-0.26c2-1.16,2.2-1.63,1.38-3.53
			c-0.45-1.03-0.99-2.01-1.48-3.02c-5.87-12.12-11.64-24.3-17.68-36.33c-1.7-3.39-2.06-6.65-1.45-10.27
			c2.25-13.45,4.38-26.92,6.59-40.37c2.48-15.12,5.04-30.22,7.48-45.34c2.46-15.31,4.77-30.64,7.23-45.95
			c1.63-10.14,3.48-20.25,5.11-30.39c2.46-15.31,4.81-30.64,7.23-45.95c0.38-2.39,0.9-4.76,1.36-7.14
			C1506.22,1391.33,1514.29,1396.04,1524.78,1403.37z"/>
		<path class="st3" d="M1510.32,805.58c-4.99-0.1-10.22-0.48-15.3-1.96c-16.71-4.86-27.11-15.87-31.94-32.46
			c-3.02-10.39-1.5-19.96,4.32-29c4.51-7,10.08-13.02,16.51-18.27c11.03-8.99,23.24-15.68,37.13-19.15
			c5.86-1.46,11.79-2.15,17.82-1.81c2.04,0.12,4.08,0.51,6.08,0.95c4.34,0.96,7.39,3.6,9.05,7.66c0.92,2.23,1.65,4.6,2.07,6.97
			c0.55,3.13,0.72,6.32,1.05,9.49c0.3,2.83-0.06,5.53-0.99,8.27c-2.49,7.36-2.75,15.08-3.13,22.74c-0.34,6.74-0.78,13.46-2.32,20.05
			c-0.51,2.18-1.2,4.33-2.01,6.42c-2.98,7.76-8.46,13.13-16.09,16.32C1525.54,804.76,1518.12,805.51,1510.32,805.58z"/>
		<path class="st3" d="M1712.48,995.08c7.54,0.24,15.39,0.67,23.13,2.23c1.65,0.33,3.29,0.73,4.91,1.17
			c12.17,3.35,19.43,11.33,22.4,23.49c1.61,6.59,1.24,13.01-1.14,19.3c-4.67,12.33-12.49,22.52-21.78,31.69
			c-0.97,0.96-1.9,0.85-3.01,0.2c-5.96-3.52-11.96-7-17.93-10.5c-17.13-10.03-34.25-20.05-51.37-30.08
			c-1.13-0.66-2.23-1.37-3.39-1.99c-1.4-0.76-1.7-1.88-1.23-3.31c4.83-14.54,17.92-31.79,40.68-32.67
			C1706.54,994.5,1709.36,994.9,1712.48,995.08z"/>
		<path class="st8" d="M1421.87,1517.6c1.44-8.44,3.1-16.84,4.07-25.36c0.57-4.99,1.57-9.93,2.37-14.89
			c1.06-6.61,2.09-13.23,3.18-19.84c1-6.06,2.1-12.1,3.07-18.16c0.89-5.51,1.62-11.05,2.49-16.57c1.37-8.64,2.82-17.26,4.19-25.89
			c0.9-5.7,1.67-11.42,2.57-17.12c1.33-8.45,2.75-16.9,4.09-25.35c0.91-5.7,1.73-11.41,2.64-17.11c1.38-8.63,2.85-17.25,4.18-25.9
			c0.96-6.25,1.72-12.54,2.64-18.8c0.76-5.16,1.6-10.3,2.45-15.45c1-6.06,2.07-12.1,3.06-18.16c1.45-8.81,2.89-17.62,4.28-26.44
			c0.9-5.7,1.63-11.43,2.53-17.13c1.34-8.45,2.81-16.88,4.13-25.34c0.97-6.25,1.78-12.53,2.65-18.8c0.1-0.74,0.12-1.5,0.31-2.22
			c1.14-4.24,1.24-8.48-0.03-12.7c-0.52-1.73-0.3-3.32,0.81-4.77c4.23-1.43,8.46-2.9,12.98-3.61c0.89,2.35,0.61,4.59,0.27,6.77
			c-2.34,14.98-4.76,29.95-7.13,44.92c-2.43,15.35-4.83,30.7-7.25,46.04c-2.48,15.72-4.97,31.43-7.44,47.15
			c-2.41,15.35-4.81,30.7-7.21,46.05c-2.41,15.35-4.82,30.7-7.24,46.04c-2.45,15.53-4.91,31.06-7.35,46.59
			c-2.41,15.35-4.8,30.7-7.21,46.05c-2.47,15.72-4.97,31.43-7.45,47.15c-0.47,2.96-0.93,5.92-1.37,8.88
			c-0.07,0.48-0.23,0.75-0.72,0.63c-0.33-0.08-0.8-0.2-0.92-0.45C1426.95,1528.44,1424.41,1523.02,1421.87,1517.6z"/>
		<path class="st8" d="M1793.64,1182.63c-0.19-0.9-0.14-1.94-0.59-2.68c-2.85-4.68-6.43-8.59-11.26-11.44
			c-14.15-8.36-28.17-16.95-42.27-25.39c-14.1-8.45-28.25-16.82-42.35-25.27c-12.18-7.3-24.29-14.7-36.47-21.98
			c-8.98-5.37-18.04-10.6-27.03-15.95c-12.04-7.17-24.05-14.38-36.06-21.59c-12.34-7.4-24.66-14.81-37-22.2
			c-12.02-7.2-24.04-14.38-36.06-21.59c-10.25-6.15-20.49-12.32-30.73-18.49c-7.04-4.24-14.05-8.52-21.12-12.72
			c-8.99-5.34-18.11-10.49-27.02-15.97c-7.82-4.81-15.9-9.11-24.16-13.07c-3.37-1.61-6.83-3.04-10.21-4.62
			c-0.83-0.38-1.53-1.03-2.29-1.56c4.2-0.53,8.18,0.65,12.18,1.59c6.57,1.54,12.9,3.88,19.1,6.52c11.2,4.77,22.09,10.16,32.55,16.42
			c111.94,67.04,223.89,134.04,335.85,201.04c2.74,1.64,5.53,3.18,7.61,5.68c0.7,0.84,1.6,1.58,1.63,2.81
			C1814.41,1183.12,1802.06,1183.35,1793.64,1182.63z"/>
		<path class="st8" d="M1466.32,1139.21c-0.74-0.1-1.51-0.11-2.22-0.33c-16.05-5.05-32.67-7.63-49.06-11.18
			c-12.58-2.73-25.12-5.59-37.7-8.3c-11.66-2.52-23.36-4.89-35.03-7.38c-6.57-1.4-13.1-2.94-19.66-4.36
			c-10.57-2.29-21.15-4.54-31.73-6.79c-14.41-3.05-28.83-6.04-43.24-9.13c-9.3-1.99-18.56-4.15-27.86-6.14
			c-15.13-3.24-30.29-6.36-45.42-9.63c-12.76-2.76-25.48-5.7-38.23-8.47c-9.66-2.1-19.35-4.02-29.02-6.06
			c-12.41-2.62-24.86-5.05-37.18-8c-6.91-1.65-13.89-2.83-20.87-3.94c-4.39-0.7-8.86-1.23-13.32-1.64
			c-6.9-0.63-13.78-1.08-20.7-1.06c-0.79,0-1.42-0.38-1.94-0.97c4.97-2.55,10.43-2.91,15.82-3.25c10.69-0.66,21.33,0.28,31.95,1.46
			c17.9,2,35.33,6.44,52.89,10.15c28.92,6.11,57.8,12.38,86.69,18.6c27.07,5.82,54.13,11.67,81.19,17.49
			c28.71,6.17,57.43,12.31,86.15,18.47c30.36,6.51,60.72,13.03,91.08,19.55c4.76,1.02,9.54,1.94,14.26,3.08
			c2.65,0.64,5.53,0.78,7.69,2.81c-0.2,0.34-0.32,0.85-0.57,0.92C1475.63,1136.52,1470.97,1137.86,1466.32,1139.21z"/>
		<path class="st5" d="M1530.18,1370.63c-1.79,4.3-3.56,8.61-5.4,12.89c-0.59,1.39-1.21,1.55-2.64,0.68
			c-4.95-3.03-9.86-6.13-14.82-9.15c-1.49-0.91-1.92-2.12-1.65-3.79c0.89-5.36,1.69-10.72,2.56-16.08
			c3.31-20.51,6.61-41.03,9.94-61.54c3.18-19.59,6.4-39.17,9.59-58.75c0.63-3.88,1.21-7.77,1.87-11.64c0.15-0.87,0.87-1.13,1.7-0.9
			c0.36,0.1,0.71,0.25,1.02,0.45c5.69,3.59,11.37,7.19,17.05,10.79c-0.91,0.24-1.86,0.46-2.02,1.61
			c-0.79,5.71-1.61,11.42-2.34,17.14c-0.85,6.64-1.33,13.35-2.54,19.93c-0.58,3.15-0.53,6.32-1.11,9.43
			c-1.44,7.69-2.05,15.49-3.24,23.21c-0.57,3.69-0.91,7.39-1.37,11.08c-0.55,4.43-1.27,8.83-1.9,13.25
			c-0.39,2.76-0.77,5.53-1.12,8.3c-0.51,4.06-0.87,8.15-1.48,12.2c-0.99,6.63-2.29,13.22-1.88,19.97c0,0,0.08-0.09,0.08-0.09
			c-0.14,0.09-0.4,0.16-0.41,0.26C1530.07,1370.11,1530.15,1370.37,1530.18,1370.63z"/>
		<path class="st7" d="M977.26,1072.59c-1.97,2.67-1.78,5.94-2.37,8.96c-0.72,3.64-1.06,7.35-1.6,11.02
			c-0.95,6.42-2.42,12.75-3.07,19.24c-0.54,5.34-1.78,10.61-2.65,15.93c-0.63,3.84-1.15,7.71-1.76,11.56
			c-0.52,3.3-1.21,6.58-1.63,9.89c-0.5,3.87-1.76,7.62-1.71,11.56c-7.19,2.58-14.37,5.17-21.56,7.72c-1.23,0.44-2.5,0.8-3.77,1.05
			c-2.04,0.4-2.88-0.36-2.56-2.39c1.17-7.38,2.4-14.75,3.6-22.13c1.71-10.51,3.42-21.03,5.12-31.54c2.13-13.1,4.27-26.19,6.37-39.29
			c0.98-6.09,1.88-12.18,2.8-18.13c0.67-0.48,1.25-0.46,1.64-0.07C960.9,1062.8,968.87,1067.99,977.26,1072.59z"/>
		<path class="st8" d="M1530.43,1369.69c-0.41-6.76,0.9-13.35,1.88-19.97c0.6-4.05,0.97-8.13,1.48-12.2
			c0.34-2.77,0.73-5.53,1.12-8.3c0.63-4.42,1.35-8.82,1.9-13.25c0.46-3.69,0.8-7.39,1.37-11.08c1.18-7.72,1.8-15.52,3.24-23.21
			c0.58-3.1,0.53-6.27,1.11-9.43c1.2-6.58,1.69-13.28,2.54-19.93c0.73-5.72,1.55-11.43,2.34-17.14c0.16-1.15,1.11-1.36,2.02-1.61
			c10.36,6.34,20.72,12.68,30.66,18.77c0.93,1.72,0.04,2.68-0.37,3.62c-15.95,37.12-31.93,74.22-47.93,111.31
			C1531.42,1368.12,1530.88,1368.89,1530.43,1369.69z"/>
		<path class="st2" d="M927.55,1118.2c-1.36,8.58-2.53,16.12-3.74,23.65c-1.36,8.47-2.74,16.93-4.11,25.39
			c-0.12,0.74-0.16,1.49-0.3,2.22c-0.85,4.67-2.27,5.5-6.82,4c-3.33-1.1-5.95-3.26-7.81-6.1c-5.79-8.85-8.62-18.55-7.65-29.19
			c0.38-4.13,2.52-7.36,5.57-10.02c0.98-0.85,2.07-1.61,3.22-2.23C912.51,1122.35,919.71,1120.53,927.55,1118.2z"/>
		<path class="st3" d="M1583.53,1615.61c0.78-2.21,1.55-4.41,4.07-6.53c-0.66,3.16-1.25,5.53-2.71,7.62
			C1584.44,1616.33,1583.99,1615.97,1583.53,1615.61z"/>
		<path class="st8" d="M1530.18,1370.63c-0.03-0.26-0.11-0.53-0.08-0.78c0.01-0.1,0.27-0.17,0.41-0.26
			C1530.55,1369.99,1530.44,1370.33,1530.18,1370.63z"/>
		<path class="st7" d="M1386.4,962.63c0.41-0.19,0.63-0.08,0.62,0.32c0,0.01-0.26,0.08-0.31,0.03c-0.11-0.11-0.17-0.28-0.25-0.42
			C1386.47,962.55,1386.4,962.63,1386.4,962.63z"/>
		<path class="st10" d="M1147.31,727.68c-5.54,0.09-10.85-1.65-16.02-3.93c-5.51-2.42-11.2-4.16-17.13-5.25
			c-11.1-2.03-21.99-1.05-32.81,1.77c-12.43,3.24-23.79,8.94-34.98,15.07c-24.31,13.33-48.03,27.67-71.99,41.6
			c-8.09,4.71-16.15,9.48-24.67,13.4c-15.94,7.35-32.6,11.8-50.05,14.03c-12.87,1.65-25.02-0.82-37.04-4.39
			c-30.56-9.07-53.25-28.25-69.39-55.44c-9.77-16.45-17.84-33.76-25.36-51.33c-6.04-14.11-11.84-28.32-17.91-42.42
			c-6.3-14.65-13.56-28.79-23.09-41.67c-13.71-18.53-30.94-32.42-52.71-40.44c-4.22-1.56-8.25-3.54-11.86-6.3
			c-6.78-5.19-9.21-12.06-7.77-20.33c0.48-2.76,1.46-5.4,2.67-7.96c4.74-9.98,13.4-13.02,22.63-11.84c3.7,0.47,7.34,1.41,10.88,2.71
			c23.2,8.56,43.69,21.28,60.86,39.22c11.37,11.88,20.53,25.25,27.71,40.02c6.88,14.15,12.98,28.64,19.06,43.15
			c7.53,17.95,14.93,35.97,23.5,53.46c4.79,9.78,10.13,19.22,16.89,27.8c5.83,7.4,12.38,14.07,20.46,19.04
			c12.07,7.43,25.09,10.22,39.25,8.54c15.91-1.9,30.39-7.77,44.38-15.12c20.06-10.55,39.55-22.12,59.2-33.41
			c13.96-8.03,28.05-15.83,42.4-23.15c13.45-6.85,27.55-11.72,42.51-13.86c16.77-2.4,33.24-0.81,49.33,4.48
			c6.6,2.17,12.93,4.96,19.04,8.25c2.82,1.52,5.5,3.25,7.86,5.39c6.04,5.47,8.62,12.05,6.4,20.2c-0.7,2.56-1.58,5.01-2.85,7.3
			C1162.54,723.76,1156.28,727.83,1147.31,727.68z"/>
		<path class="st0" d="M895.02,560.66c-0.41,8.65-2.11,17.01-5.91,24.85c-1.56,3.22-3.55,6.14-6.25,8.53
			c-5.4,4.79-11.77,6.38-18.75,5.27c-3.84-0.61-6.89-2.75-8.86-6.23c-1.88-3.32-2.92-6.88-2.93-10.68
			c-0.03-9.87,2.03-19.28,6.64-28.03c3.75-7.14,9.7-11.66,17.41-14c2.28-0.69,4.34-0.54,6.53,0.34c7.53,3.01,11.56,8.53,12.12,16.59
			C895.09,558.42,895.02,559.54,895.02,560.66z"/>
		<path class="st10" d="M995.25,591.92c0.21,5.22-0.53,10.74-2.44,16.09c-2.8,7.86-7.73,14.01-14.86,18.37
			c-9.45,5.78-21.37,0.48-23.32-10.39c-0.36-2.02-0.74-4.09-0.68-6.12c0.22-7.29,0.7-14.55,3.24-21.51
			c3.68-10.11,10.71-16.41,21.21-18.82c7.43-1.7,12.21,0.93,14.94,8.15C995.04,582.14,995.3,586.78,995.25,591.92z"/>
		<path class="st10" d="M735.02,397.65c0.03-35.44,11-67.27,31.93-95.75c9.15-12.44,19.87-23.41,31.93-33.04
			c8.41-6.71,17.6-11.94,28.07-14.91c22.05-6.27,49.65,5.6,59.08,29.25c3.15,7.89,4.99,16.07,5.59,24.52
			c0.37,5.23,0.85,10.47,0.78,15.7c-0.33,25-4.98,49.09-15.87,71.77c-6.61,13.75-14.95,26.38-25,37.85
			c-8.53,9.74-17.65,18.88-28.37,26.28c-7.46,5.15-15.45,9.1-24.41,10.96c-7.1,1.47-14.16,1.48-21.16-0.25
			c-14.01-3.46-25.56-10.56-33-23.3c-3.62-6.2-5.73-12.98-7.09-20.02C735.65,417.12,735,407.43,735.02,397.65z M799.46,396.24
			c0.01,4.35,0.36,8.64,1.16,12.88c1.59,8.47,6.6,12.63,15.24,12.61c13.22-0.03,23.45-5.48,30.18-17.04c1.03-1.77,1.99-3.6,2.8-5.49
			c4-9.35,6.31-19.16,7.41-29.24c0.52-4.7-0.24-9.37-2.11-13.73c-2.76-6.43-7.57-10.05-14.78-10.03
			c-11.86,0.02-21.57,4.61-28.33,14.36C803.63,371.22,799.78,383.21,799.46,396.24z"/>
		<path class="st10" d="M1244.63,466.67c0.29,7.18-1.17,14.17-2.39,21.16c-2.68,15.34-6.91,30.26-13.22,44.54
			c-12.62,28.58-32.06,51.25-58.79,67.53c-8.04,4.9-16.59,8.57-26,10.07c-16.55,2.65-30.31-2.29-41.17-15.02
			c-7.45-8.73-11.79-19.08-14.51-30.08c-2.94-11.88-3.84-23.91-2.72-36.18c3.3-36.33,16.97-68.38,39.49-96.79
			c9.38-11.83,20.44-21.87,33.63-29.41c7.52-4.3,15.43-7.56,24.03-9.06c19.74-3.44,35.32,3.25,46.95,19.32
			c5.67,7.84,9.02,16.79,11.27,26.13C1243.4,448,1244.28,457.3,1244.63,466.67z M1166.55,498.85c-0.22-3.82-0.34-6.43-0.53-9.04
			c-0.24-3.19-1-6.28-2.28-9.2c-2.32-5.28-6.32-8.25-12.17-8.32c-11.96-0.13-21.87,4.17-29.18,13.85c-3.07,4.06-5.24,8.6-6.94,13.38
			c-2.78,7.78-4.31,15.85-5.27,24.02c-0.51,4.31,0.06,8.59,1.44,12.71c2.87,8.56,8.98,12.61,17.98,11.8
			c11.94-1.08,21.36-6.55,27.6-16.84C1163.42,520.94,1166.58,509.72,1166.55,498.85z"/>
		<path class="st8" d="M799.46,396.24c0.32-13.03,4.17-25.02,11.57-35.69c6.76-9.75,16.46-14.34,28.33-14.36
			c7.22-0.01,12.03,3.6,14.78,10.03c1.87,4.36,2.62,9.03,2.11,13.73c-1.11,10.07-3.42,19.88-7.41,29.24
			c-0.81,1.88-1.76,3.72-2.8,5.49c-6.73,11.56-16.96,17-30.18,17.04c-8.64,0.02-13.66-4.14-15.24-12.61
			C799.82,404.88,799.47,400.58,799.46,396.24z"/>
		<path class="st8" d="M1166.55,498.85c0.04,10.87-3.13,22.09-9.36,32.36c-6.24,10.3-15.66,15.76-27.6,16.84
			c-9,0.81-15.1-3.23-17.98-11.8c-1.38-4.13-1.95-8.4-1.44-12.71c0.96-8.17,2.49-16.24,5.27-24.02c1.7-4.77,3.88-9.31,6.94-13.38
			c7.31-9.68,17.22-13.98,29.18-13.85c5.86,0.07,9.86,3.04,12.17,8.32c1.28,2.93,2.04,6.01,2.28,9.2
			C1166.21,492.42,1166.33,495.03,1166.55,498.85z"/>
	</g>
	<path class="st11" d="M1908.99,2314.12H87.58c-6.6,0-12-5.4-12-12V88.16c0-6.6,5.4-12,12-12h1821.41c6.6,0,12,5.4,12,12v2213.96
		C1920.99,2308.72,1915.59,2314.12,1908.99,2314.12z"/>
	<g id="XMLID_1_">
		<g>
		</g>
		<g>
			<line class="st11" x1="73.01" y1="1943.74" x2="1918.42" y2="1943.74"/>
		</g>
	</g>
	<text transform="matrix(1 0 0 1 123.2885 2261.9958)" class="st0 st12 st13">MASTER BOOK</text>
</g>
</svg>
